<svg width="496" height="95" viewBox="0 0 496 95" fill="none" xmlns="http://www.w3.org/2000/svg">
<path d="M33.0627 85.28C33.1267 85.28 33.1694 85.2933 33.1907 85.32C33.2174 85.3413 33.2307 85.384 33.2307 85.448C33.1347 86.328 32.8121 87.056 32.2627 87.632C31.7187 88.2027 30.9774 88.6453 30.0387 88.96L29.6227 88.504C29.9587 88.408 30.2867 88.2853 30.6067 88.136C30.9267 87.9867 31.2147 87.8053 31.4707 87.592C31.7321 87.368 31.9534 87.1147 32.1347 86.832C32.3214 86.5493 32.4521 86.216 32.5267 85.832H30.0387V85.28H33.0627ZM35.3827 88.944H34.7507V87.28H33.2707V86.72H34.7507V84.952H35.3827V88.944ZM34.7347 91.44V89.864H31.4147V91.44H34.7347ZM35.3667 91.792C35.3667 91.856 35.3534 91.8987 35.3267 91.92C35.3054 91.9467 35.2627 91.96 35.1987 91.96H30.9507C30.8867 91.96 30.8414 91.9467 30.8147 91.92C30.7934 91.8987 30.7827 91.856 30.7827 91.792V89.504C30.7827 89.44 30.7934 89.3973 30.8147 89.376C30.8414 89.3493 30.8867 89.336 30.9507 89.336H35.1987C35.2627 89.336 35.3054 89.3493 35.3267 89.376C35.3534 89.3973 35.3667 89.44 35.3667 89.504V91.792ZM38.6953 86.664C38.6953 87.032 38.7326 87.376 38.8073 87.696C38.8819 88.0107 38.9966 88.2987 39.1513 88.56C39.4926 89.152 39.9886 89.6373 40.6393 90.016C40.5966 90.048 40.5513 90.0853 40.5033 90.128C40.4606 90.1707 40.4179 90.2107 40.3753 90.248C40.3326 90.2907 40.2926 90.3333 40.2553 90.376C40.2179 90.4133 40.1859 90.4453 40.1593 90.472C39.9939 90.36 39.8259 90.232 39.6553 90.088C39.4899 89.9387 39.3299 89.776 39.1753 89.6C39.0099 89.408 38.8579 89.2 38.7193 88.976C38.5806 88.752 38.4633 88.5093 38.3673 88.248C38.3033 88.488 38.2073 88.7227 38.0793 88.952C37.9513 89.176 37.8073 89.392 37.6473 89.6C37.4819 89.824 37.3059 90.0267 37.1193 90.208C36.9326 90.384 36.7513 90.5307 36.5753 90.648C36.5113 90.5893 36.4259 90.52 36.3193 90.44C36.2126 90.3547 36.1139 90.2827 36.0233 90.224C36.6686 89.824 37.1726 89.304 37.5353 88.664C37.7006 88.36 37.8259 88.032 37.9113 87.68C37.9966 87.328 38.0393 86.952 38.0393 86.552V85.224H38.6953V86.664ZM41.8633 92.048H41.2313V84.952H41.8633V87.672H42.9113V88.24H41.8633V92.048ZM49.3202 88.728C49.1815 88.6693 49.0268 88.5947 48.8562 88.504C48.6908 88.408 48.5255 88.296 48.3602 88.168C48.1948 88.04 48.0375 87.896 47.8882 87.736C47.7388 87.576 47.6162 87.3973 47.5202 87.2C47.3655 87.616 47.1202 87.96 46.7842 88.232C46.6135 88.3707 46.4375 88.5013 46.2562 88.624C46.0802 88.7413 45.8962 88.8453 45.7042 88.936L45.2162 88.52C45.4722 88.4187 45.7202 88.2933 45.9602 88.144C46.2002 87.9893 46.4108 87.808 46.5922 87.6C46.7735 87.392 46.9175 87.1573 47.0242 86.896C47.1362 86.6347 47.1922 86.344 47.1922 86.024V85.824H45.7602V85.28H49.2242V85.824H47.8482V86.04C47.8482 86.3333 47.8988 86.6 48.0002 86.84C48.1068 87.0747 48.2482 87.2853 48.4242 87.472C48.6002 87.6587 48.8002 87.8187 49.0242 87.952C49.2482 88.0853 49.4802 88.1893 49.7202 88.264L49.3202 88.728ZM51.2482 89.048H50.6162V87.064H49.1442V86.52H50.6162V84.952H51.2482V89.048ZM50.6162 91.44V89.936H47.2962V91.44H50.6162ZM51.2482 91.792C51.2482 91.856 51.2348 91.8987 51.2082 91.92C51.1868 91.9467 51.1442 91.96 51.0802 91.96H46.8322C46.7682 91.96 46.7228 91.9467 46.6962 91.92C46.6748 91.8987 46.6642 91.856 46.6642 91.792V89.584C46.6642 89.52 46.6748 89.4773 46.6962 89.456C46.7228 89.4293 46.7682 89.416 46.8322 89.416H51.0802C51.1442 89.416 51.1868 89.4293 51.2082 89.456C51.2348 89.4773 51.2482 89.52 51.2482 89.584V91.792ZM57.8087 88.096C57.5527 88.032 57.2967 87.9493 57.0407 87.848C56.7847 87.7413 56.5421 87.616 56.3127 87.472C56.0834 87.328 55.8781 87.168 55.6967 86.992C55.5207 86.816 55.3874 86.6213 55.2967 86.408C55.1794 86.632 55.0301 86.8347 54.8487 87.016C54.6674 87.192 54.4647 87.3467 54.2407 87.48C54.0167 87.6187 53.7821 87.7387 53.5367 87.84C53.2914 87.9413 53.0407 88.0267 52.7847 88.096L52.3447 87.6C54.0727 87.184 54.9367 86.4827 54.9367 85.496V85.12H55.6407V85.488C55.6407 85.776 55.7127 86.0347 55.8567 86.264C56.0007 86.488 56.1927 86.688 56.4327 86.864C56.6727 87.04 56.9474 87.1893 57.2567 87.312C57.5661 87.4347 57.8834 87.528 58.2087 87.592L57.8087 88.096ZM58.5367 89.416H55.6407V92.056H54.9927V89.416H52.0487V88.872H58.5367V89.416Z" fill="#444444"/>
<line x1="70" y1="88.75" x2="144" y2="88.75" stroke="#A3A3A3" stroke-width="0.5" stroke-miterlimit="16"/>
<g clip-path="url(#clip0_101:153)">
<rect x="153.125" y="79.875" width="21.75" height="0.25" transform="rotate(-90 153.125 79.875)" stroke="#A3A3A3" stroke-width="0.25"/>
<mask id="path-4-inside-1_101:153" fill="white">
<path d="M239 80L239 10L239.5 10L239.5 80L239 80Z"/>
</mask>
<path d="M239 80L238 80L238 81L239 81L239 80ZM239 10L239 9L238 9L238 10L239 10ZM239.5 10L240.5 10L240.5 9L239.5 9L239.5 10ZM239.5 80L239.5 81L240.5 81L240.5 80L239.5 80ZM240 80L240 10L238 10L238 80L240 80ZM239 11L239.5 11L239.5 9L239 9L239 11ZM238.5 10L238.5 80L240.5 80L240.5 10L238.5 10ZM239.5 79L239 79L239 81L239.5 81L239.5 79Z" fill="#A3A3A3" mask="url(#path-4-inside-1_101:153)"/>
<line x1="282.25" y1="1.09278e-08" x2="282.25" y2="81" stroke="#A3A3A3" stroke-width="0.5" stroke-dasharray="2 2"/>
<rect x="325.125" y="79.875" width="69.75" height="0.25" transform="rotate(-90 325.125 79.875)" stroke="#A3A3A3" stroke-width="0.25"/>
<rect x="411.125" y="79.875" width="21.75" height="0.25" transform="rotate(-90 411.125 79.875)" stroke="#A3A3A3" stroke-width="0.25"/>
</g>
<g clip-path="url(#clip1_101:153)">
<path d="M495.987 79.3757C495.987 79.3757 453.061 78.6889 410.187 57.2124C367.312 35.7359 322.789 0.624329 281.5 0.624329C240.21 0.624329 195.687 35.7359 152.812 57.2124C109.938 78.6889 67.0122 79.3757 67.0122 79.3757" stroke="#858585" stroke-width="1.5" stroke-miterlimit="10"/>
<path d="M140.17 75.256H139.458L141.65 69.968H138.714V69.416H142.17C142.271 69.416 142.322 69.4667 142.322 69.568V69.872C142.322 69.9147 142.314 69.9547 142.298 69.992C142.287 70.0293 142.274 70.064 142.258 70.096L140.17 75.256ZM144.814 75.256H144.222L147.382 69.256H147.974L144.814 75.256ZM145.318 72.024C145.211 72.168 145.078 72.2827 144.918 72.368C144.758 72.4533 144.571 72.496 144.358 72.496C144.15 72.496 143.966 72.4533 143.806 72.368C143.646 72.2827 143.51 72.168 143.398 72.024C143.291 71.88 143.211 71.7147 143.158 71.528C143.104 71.336 143.078 71.136 143.078 70.928C143.078 70.72 143.104 70.5227 143.158 70.336C143.211 70.144 143.291 69.976 143.398 69.832C143.51 69.688 143.646 69.5733 143.806 69.488C143.966 69.3973 144.15 69.352 144.358 69.352C144.571 69.352 144.758 69.3973 144.918 69.488C145.078 69.5733 145.211 69.688 145.318 69.832C145.424 69.976 145.504 70.144 145.558 70.336C145.616 70.5227 145.646 70.72 145.646 70.928C145.646 71.136 145.616 71.336 145.558 71.528C145.504 71.7147 145.424 71.88 145.318 72.024ZM148.79 74.824C148.683 74.968 148.55 75.0827 148.39 75.168C148.23 75.2587 148.046 75.304 147.838 75.304C147.63 75.304 147.446 75.2587 147.286 75.168C147.126 75.0827 146.99 74.968 146.878 74.824C146.771 74.68 146.691 74.5147 146.638 74.328C146.584 74.136 146.558 73.936 146.558 73.728C146.558 73.52 146.584 73.3227 146.638 73.136C146.691 72.944 146.771 72.776 146.878 72.632C146.99 72.488 147.126 72.3733 147.286 72.288C147.446 72.2027 147.63 72.16 147.838 72.16C148.046 72.16 148.23 72.2027 148.39 72.288C148.55 72.3733 148.683 72.488 148.79 72.632C148.902 72.776 148.984 72.944 149.038 73.136C149.096 73.3227 149.126 73.52 149.126 73.728C149.126 73.936 149.096 74.136 149.038 74.328C148.984 74.5147 148.902 74.68 148.79 74.824ZM144.686 71.96C144.83 71.8533 144.931 71.7067 144.99 71.52C145.048 71.3333 145.078 71.1387 145.078 70.936C145.078 70.8027 145.064 70.6667 145.038 70.528C145.016 70.3893 144.976 70.2667 144.918 70.16C144.859 70.0533 144.782 69.9653 144.686 69.896C144.595 69.8267 144.483 69.792 144.35 69.792C144.211 69.792 144.096 69.8267 144.006 69.896C143.92 69.9653 143.851 70.0533 143.798 70.16C143.744 70.2667 143.707 70.3893 143.686 70.528C143.664 70.6667 143.654 70.8027 143.654 70.936C143.654 71.0693 143.664 71.2027 143.686 71.336C143.707 71.4693 143.744 71.5893 143.798 71.696C143.851 71.8027 143.92 71.8907 144.006 71.96C144.096 72.024 144.211 72.056 144.35 72.056C144.483 72.056 144.595 72.024 144.686 71.96ZM148.166 74.76C148.31 74.6533 148.411 74.5067 148.47 74.32C148.528 74.1333 148.558 73.9387 148.558 73.736C148.558 73.6027 148.544 73.4693 148.518 73.336C148.496 73.1973 148.456 73.0747 148.398 72.968C148.339 72.8613 148.262 72.776 148.166 72.712C148.075 72.6427 147.963 72.608 147.83 72.608C147.691 72.608 147.576 72.6427 147.486 72.712C147.4 72.776 147.331 72.8613 147.278 72.968C147.224 73.0747 147.187 73.1973 147.166 73.336C147.144 73.4693 147.134 73.6027 147.134 73.736C147.134 73.8693 147.144 74.0027 147.166 74.136C147.187 74.2693 147.224 74.3893 147.278 74.496C147.331 74.6027 147.4 74.6907 147.486 74.76C147.576 74.824 147.691 74.856 147.83 74.856C147.963 74.856 148.075 74.824 148.166 74.76Z" fill="#444444"/>
<path d="M417.17 75.256H416.458L418.65 69.968H415.714V69.416H419.17C419.271 69.416 419.322 69.4667 419.322 69.568V69.872C419.322 69.9147 419.314 69.9547 419.298 69.992C419.287 70.0293 419.274 70.064 419.258 70.096L417.17 75.256ZM421.814 75.256H421.222L424.382 69.256H424.974L421.814 75.256ZM422.318 72.024C422.211 72.168 422.078 72.2827 421.918 72.368C421.758 72.4533 421.571 72.496 421.358 72.496C421.15 72.496 420.966 72.4533 420.806 72.368C420.646 72.2827 420.51 72.168 420.398 72.024C420.291 71.88 420.211 71.7147 420.158 71.528C420.104 71.336 420.078 71.136 420.078 70.928C420.078 70.72 420.104 70.5227 420.158 70.336C420.211 70.144 420.291 69.976 420.398 69.832C420.51 69.688 420.646 69.5733 420.806 69.488C420.966 69.3973 421.15 69.352 421.358 69.352C421.571 69.352 421.758 69.3973 421.918 69.488C422.078 69.5733 422.211 69.688 422.318 69.832C422.424 69.976 422.504 70.144 422.558 70.336C422.616 70.5227 422.646 70.72 422.646 70.928C422.646 71.136 422.616 71.336 422.558 71.528C422.504 71.7147 422.424 71.88 422.318 72.024ZM425.79 74.824C425.683 74.968 425.55 75.0827 425.39 75.168C425.23 75.2587 425.046 75.304 424.838 75.304C424.63 75.304 424.446 75.2587 424.286 75.168C424.126 75.0827 423.99 74.968 423.878 74.824C423.771 74.68 423.691 74.5147 423.638 74.328C423.584 74.136 423.558 73.936 423.558 73.728C423.558 73.52 423.584 73.3227 423.638 73.136C423.691 72.944 423.771 72.776 423.878 72.632C423.99 72.488 424.126 72.3733 424.286 72.288C424.446 72.2027 424.63 72.16 424.838 72.16C425.046 72.16 425.23 72.2027 425.39 72.288C425.55 72.3733 425.683 72.488 425.79 72.632C425.902 72.776 425.984 72.944 426.038 73.136C426.096 73.3227 426.126 73.52 426.126 73.728C426.126 73.936 426.096 74.136 426.038 74.328C425.984 74.5147 425.902 74.68 425.79 74.824ZM421.686 71.96C421.83 71.8533 421.931 71.7067 421.99 71.52C422.048 71.3333 422.078 71.1387 422.078 70.936C422.078 70.8027 422.064 70.6667 422.038 70.528C422.016 70.3893 421.976 70.2667 421.918 70.16C421.859 70.0533 421.782 69.9653 421.686 69.896C421.595 69.8267 421.483 69.792 421.35 69.792C421.211 69.792 421.096 69.8267 421.006 69.896C420.92 69.9653 420.851 70.0533 420.798 70.16C420.744 70.2667 420.707 70.3893 420.686 70.528C420.664 70.6667 420.654 70.8027 420.654 70.936C420.654 71.0693 420.664 71.2027 420.686 71.336C420.707 71.4693 420.744 71.5893 420.798 71.696C420.851 71.8027 420.92 71.8907 421.006 71.96C421.096 72.024 421.211 72.056 421.35 72.056C421.483 72.056 421.595 72.024 421.686 71.96ZM425.166 74.76C425.31 74.6533 425.411 74.5067 425.47 74.32C425.528 74.1333 425.558 73.9387 425.558 73.736C425.558 73.6027 425.544 73.4693 425.518 73.336C425.496 73.1973 425.456 73.0747 425.398 72.968C425.339 72.8613 425.262 72.776 425.166 72.712C425.075 72.6427 424.963 72.608 424.83 72.608C424.691 72.608 424.576 72.6427 424.486 72.712C424.4 72.776 424.331 72.8613 424.278 72.968C424.224 73.0747 424.187 73.1973 424.166 73.336C424.144 73.4693 424.134 73.6027 424.134 73.736C424.134 73.8693 424.144 74.0027 424.166 74.136C424.187 74.2693 424.224 74.3893 424.278 74.496C424.331 74.6027 424.4 74.6907 424.486 74.76C424.576 74.824 424.691 74.856 424.83 74.856C424.963 74.856 425.075 74.824 425.166 74.76Z" fill="#444444"/>
<path d="M194.156 75.256H190.644C190.596 75.256 190.564 75.248 190.548 75.232C190.537 75.216 190.532 75.184 190.532 75.136V74.656C190.655 74.5387 190.809 74.3867 190.996 74.2C191.188 74.0133 191.388 73.808 191.596 73.584C191.809 73.3547 192.02 73.1173 192.228 72.872C192.441 72.6267 192.631 72.384 192.796 72.144C192.967 71.8987 193.105 71.6667 193.212 71.448C193.319 71.2293 193.372 71.0373 193.372 70.872C193.377 70.52 193.276 70.2587 193.068 70.088C192.865 69.9173 192.604 69.832 192.284 69.832C191.975 69.832 191.721 69.936 191.524 70.144C191.332 70.352 191.236 70.632 191.236 70.984H190.58C190.58 70.7227 190.623 70.488 190.708 70.28C190.799 70.072 190.921 69.8933 191.076 69.744C191.231 69.5947 191.412 69.48 191.62 69.4C191.828 69.32 192.055 69.28 192.3 69.28C192.545 69.28 192.772 69.3147 192.98 69.384C193.193 69.448 193.377 69.544 193.532 69.672C193.687 69.8 193.807 69.96 193.892 70.152C193.983 70.344 194.028 70.568 194.028 70.824C194.028 71.0427 193.98 71.272 193.884 71.512C193.788 71.752 193.66 71.9947 193.5 72.24C193.345 72.48 193.167 72.72 192.964 72.96C192.767 73.1947 192.564 73.4187 192.356 73.632C192.153 73.8453 191.956 74.0453 191.764 74.232C191.572 74.4133 191.404 74.5707 191.26 74.704H194.156V75.256ZM197.312 73.424V70.776L197.328 70.04L195.264 73.424H197.312ZM197.92 75.256H197.296V73.976H194.808C194.707 73.976 194.656 73.9253 194.656 73.824V73.488C194.656 73.4133 194.68 73.3387 194.728 73.264L197.064 69.432C197.096 69.3627 197.149 69.328 197.224 69.328H197.768C197.827 69.328 197.867 69.3387 197.888 69.36C197.909 69.3813 197.92 69.4213 197.92 69.48V73.424H198.792V73.976H197.92V75.256ZM200.988 75.256H200.396L203.556 69.256H204.148L200.988 75.256ZM201.492 72.024C201.385 72.168 201.252 72.2827 201.092 72.368C200.932 72.4533 200.745 72.496 200.532 72.496C200.324 72.496 200.14 72.4533 199.98 72.368C199.82 72.2827 199.684 72.168 199.572 72.024C199.465 71.88 199.385 71.7147 199.332 71.528C199.278 71.336 199.252 71.136 199.252 70.928C199.252 70.72 199.278 70.5227 199.332 70.336C199.385 70.144 199.465 69.976 199.572 69.832C199.684 69.688 199.82 69.5733 199.98 69.488C200.14 69.3973 200.324 69.352 200.532 69.352C200.745 69.352 200.932 69.3973 201.092 69.488C201.252 69.5733 201.385 69.688 201.492 69.832C201.598 69.976 201.678 70.144 201.732 70.336C201.79 70.5227 201.82 70.72 201.82 70.928C201.82 71.136 201.79 71.336 201.732 71.528C201.678 71.7147 201.598 71.88 201.492 72.024ZM204.964 74.824C204.857 74.968 204.724 75.0827 204.564 75.168C204.404 75.2587 204.22 75.304 204.012 75.304C203.804 75.304 203.62 75.2587 203.46 75.168C203.3 75.0827 203.164 74.968 203.052 74.824C202.945 74.68 202.865 74.5147 202.812 74.328C202.758 74.136 202.732 73.936 202.732 73.728C202.732 73.52 202.758 73.3227 202.812 73.136C202.865 72.944 202.945 72.776 203.052 72.632C203.164 72.488 203.3 72.3733 203.46 72.288C203.62 72.2027 203.804 72.16 204.012 72.16C204.22 72.16 204.404 72.2027 204.564 72.288C204.724 72.3733 204.857 72.488 204.964 72.632C205.076 72.776 205.158 72.944 205.212 73.136C205.27 73.3227 205.3 73.52 205.3 73.728C205.3 73.936 205.27 74.136 205.212 74.328C205.158 74.5147 205.076 74.68 204.964 74.824ZM200.86 71.96C201.004 71.8533 201.105 71.7067 201.164 71.52C201.222 71.3333 201.252 71.1387 201.252 70.936C201.252 70.8027 201.238 70.6667 201.212 70.528C201.19 70.3893 201.15 70.2667 201.092 70.16C201.033 70.0533 200.956 69.9653 200.86 69.896C200.769 69.8267 200.657 69.792 200.524 69.792C200.385 69.792 200.27 69.8267 200.18 69.896C200.094 69.9653 200.025 70.0533 199.972 70.16C199.918 70.2667 199.881 70.3893 199.86 70.528C199.838 70.6667 199.828 70.8027 199.828 70.936C199.828 71.0693 199.838 71.2027 199.86 71.336C199.881 71.4693 199.918 71.5893 199.972 71.696C200.025 71.8027 200.094 71.8907 200.18 71.96C200.27 72.024 200.385 72.056 200.524 72.056C200.657 72.056 200.769 72.024 200.86 71.96ZM204.34 74.76C204.484 74.6533 204.585 74.5067 204.644 74.32C204.702 74.1333 204.732 73.9387 204.732 73.736C204.732 73.6027 204.718 73.4693 204.692 73.336C204.67 73.1973 204.63 73.0747 204.572 72.968C204.513 72.8613 204.436 72.776 204.34 72.712C204.249 72.6427 204.137 72.608 204.004 72.608C203.865 72.608 203.75 72.6427 203.66 72.712C203.574 72.776 203.505 72.8613 203.452 72.968C203.398 73.0747 203.361 73.1973 203.34 73.336C203.318 73.4693 203.308 73.6027 203.308 73.736C203.308 73.8693 203.318 74.0027 203.34 74.136C203.361 74.2693 203.398 74.3893 203.452 74.496C203.505 74.6027 203.574 74.6907 203.66 74.76C203.75 74.824 203.865 74.856 204.004 74.856C204.137 74.856 204.249 74.824 204.34 74.76Z" fill="#444444"/>
</g>
<rect x="67" y="80" width="429" height="0.5" fill="#A3A3A3"/>
<path d="M148.944 89.672C149.035 90.4507 149.459 90.84 150.216 90.84C150.616 90.84 150.928 90.736 151.152 90.528C151.382 90.32 151.496 90.024 151.496 89.64C151.496 89.4427 151.459 89.2747 151.384 89.136C151.31 88.992 151.211 88.8747 151.088 88.784C150.966 88.6933 150.824 88.6267 150.664 88.584C150.504 88.536 150.342 88.5093 150.176 88.504H149.856C149.798 88.504 149.76 88.4987 149.744 88.488C149.734 88.472 149.728 88.4347 149.728 88.376V88.08C149.728 88.016 149.734 87.9733 149.744 87.952C149.76 87.9307 149.798 87.92 149.856 87.92H150.12C150.286 87.9147 150.443 87.8933 150.592 87.856C150.742 87.8133 150.872 87.752 150.984 87.672C151.102 87.5867 151.195 87.48 151.264 87.352C151.334 87.224 151.368 87.0667 151.368 86.88C151.368 86.5387 151.256 86.28 151.032 86.104C150.814 85.9227 150.536 85.832 150.2 85.832C149.491 85.832 149.102 86.184 149.032 86.888H148.392C148.398 86.6427 148.446 86.4213 148.536 86.224C148.627 86.0213 148.752 85.8507 148.912 85.712C149.072 85.5733 149.262 85.4667 149.48 85.392C149.704 85.3173 149.952 85.28 150.224 85.28C150.464 85.28 150.691 85.312 150.904 85.376C151.118 85.4347 151.307 85.528 151.472 85.656C151.638 85.784 151.768 85.9467 151.864 86.144C151.96 86.3413 152.008 86.576 152.008 86.848C152.008 87.0187 151.979 87.1813 151.92 87.336C151.867 87.4853 151.787 87.6213 151.68 87.744C151.579 87.8667 151.454 87.9707 151.304 88.056C151.16 88.1413 151 88.2 150.824 88.232C151.022 88.2587 151.2 88.3147 151.36 88.4C151.52 88.4853 151.656 88.592 151.768 88.72C151.886 88.848 151.976 88.9973 152.04 89.168C152.104 89.3387 152.136 89.52 152.136 89.712C152.136 90.0107 152.08 90.2667 151.968 90.48C151.862 90.688 151.718 90.8613 151.536 91C151.36 91.1333 151.155 91.232 150.92 91.296C150.686 91.36 150.443 91.392 150.192 91.392C149.904 91.392 149.646 91.352 149.416 91.272C149.187 91.1973 148.992 91.0853 148.832 90.936C148.672 90.7867 148.547 90.6053 148.456 90.392C148.366 90.1787 148.318 89.9387 148.312 89.672H148.944ZM153.524 89.832C153.577 90.1573 153.713 90.4107 153.932 90.592C154.156 90.768 154.431 90.856 154.756 90.856C154.921 90.856 155.076 90.824 155.22 90.76C155.369 90.6907 155.495 90.592 155.596 90.464C155.703 90.336 155.785 90.184 155.844 90.008C155.908 89.8267 155.94 89.624 155.94 89.4C155.94 88.904 155.828 88.536 155.604 88.296C155.385 88.0507 155.105 87.928 154.764 87.928C154.492 87.928 154.257 87.9947 154.06 88.128C153.863 88.2613 153.729 88.448 153.66 88.688C153.644 88.7307 153.628 88.7653 153.612 88.792C153.596 88.8133 153.559 88.824 153.5 88.824H153.116C153.068 88.824 153.039 88.8187 153.028 88.808C153.017 88.792 153.012 88.7573 153.012 88.704L153.1 85.568C153.105 85.5093 153.116 85.4693 153.132 85.448C153.148 85.4267 153.18 85.416 153.228 85.416H156.276V85.96H153.716L153.604 87.928C153.727 87.7573 153.9 87.6267 154.124 87.536C154.353 87.4453 154.612 87.4 154.9 87.4C155.129 87.4 155.345 87.4427 155.548 87.528C155.756 87.608 155.935 87.7307 156.084 87.896C156.239 88.056 156.359 88.2613 156.444 88.512C156.535 88.7627 156.58 89.056 156.58 89.392C156.58 89.6853 156.535 89.9547 156.444 90.2C156.359 90.4453 156.236 90.656 156.076 90.832C155.916 91.008 155.721 91.144 155.492 91.24C155.263 91.3413 155.009 91.392 154.732 91.392C154.481 91.392 154.247 91.3573 154.028 91.288C153.809 91.224 153.617 91.1253 153.452 90.992C153.292 90.8587 153.161 90.696 153.06 90.504C152.964 90.3067 152.908 90.0827 152.892 89.832H153.524Z" fill="#222222"/>
<path d="M236.88 89.424V86.776L236.896 86.04L234.832 89.424H236.88ZM237.488 91.256H236.864V89.976H234.376C234.275 89.976 234.224 89.9253 234.224 89.824V89.488C234.224 89.4133 234.248 89.3387 234.296 89.264L236.632 85.432C236.664 85.3627 236.718 85.328 236.792 85.328H237.336C237.395 85.328 237.435 85.3387 237.456 85.36C237.478 85.3813 237.488 85.4213 237.488 85.48V89.424H238.36V89.976H237.488V91.256ZM239.524 89.832C239.577 90.1573 239.713 90.4107 239.932 90.592C240.156 90.768 240.431 90.856 240.756 90.856C240.921 90.856 241.076 90.824 241.22 90.76C241.369 90.6907 241.495 90.592 241.596 90.464C241.703 90.336 241.785 90.184 241.844 90.008C241.908 89.8267 241.94 89.624 241.94 89.4C241.94 88.904 241.828 88.536 241.604 88.296C241.385 88.0507 241.105 87.928 240.764 87.928C240.492 87.928 240.257 87.9947 240.06 88.128C239.863 88.2613 239.729 88.448 239.66 88.688C239.644 88.7307 239.628 88.7653 239.612 88.792C239.596 88.8133 239.559 88.824 239.5 88.824H239.116C239.068 88.824 239.039 88.8187 239.028 88.808C239.017 88.792 239.012 88.7573 239.012 88.704L239.1 85.568C239.105 85.5093 239.116 85.4693 239.132 85.448C239.148 85.4267 239.18 85.416 239.228 85.416H242.276V85.96H239.716L239.604 87.928C239.727 87.7573 239.9 87.6267 240.124 87.536C240.353 87.4453 240.612 87.4 240.9 87.4C241.129 87.4 241.345 87.4427 241.548 87.528C241.756 87.608 241.935 87.7307 242.084 87.896C242.239 88.056 242.359 88.2613 242.444 88.512C242.535 88.7627 242.58 89.056 242.58 89.392C242.58 89.6853 242.535 89.9547 242.444 90.2C242.359 90.4453 242.236 90.656 242.076 90.832C241.916 91.008 241.721 91.144 241.492 91.24C241.263 91.3413 241.009 91.392 240.732 91.392C240.481 91.392 240.247 91.3573 240.028 91.288C239.809 91.224 239.617 91.1253 239.452 90.992C239.292 90.8587 239.161 90.696 239.06 90.504C238.964 90.3067 238.908 90.0827 238.892 89.832H239.524Z" fill="#222222"/>
<path d="M322.176 89.832C322.23 90.1573 322.366 90.4107 322.584 90.592C322.808 90.768 323.083 90.856 323.408 90.856C323.574 90.856 323.728 90.824 323.872 90.76C324.022 90.6907 324.147 90.592 324.248 90.464C324.355 90.336 324.438 90.184 324.496 90.008C324.56 89.8267 324.592 89.624 324.592 89.4C324.592 88.904 324.48 88.536 324.256 88.296C324.038 88.0507 323.758 87.928 323.416 87.928C323.144 87.928 322.91 87.9947 322.712 88.128C322.515 88.2613 322.382 88.448 322.312 88.688C322.296 88.7307 322.28 88.7653 322.264 88.792C322.248 88.8133 322.211 88.824 322.152 88.824H321.768C321.72 88.824 321.691 88.8187 321.68 88.808C321.67 88.792 321.664 88.7573 321.664 88.704L321.752 85.568C321.758 85.5093 321.768 85.4693 321.784 85.448C321.8 85.4267 321.832 85.416 321.88 85.416H324.928V85.96H322.368L322.256 87.928C322.379 87.7573 322.552 87.6267 322.776 87.536C323.006 87.4453 323.264 87.4 323.552 87.4C323.782 87.4 323.998 87.4427 324.2 87.528C324.408 87.608 324.587 87.7307 324.736 87.896C324.891 88.056 325.011 88.2613 325.096 88.512C325.187 88.7627 325.232 89.056 325.232 89.392C325.232 89.6853 325.187 89.9547 325.096 90.2C325.011 90.4453 324.888 90.656 324.728 90.832C324.568 91.008 324.374 91.144 324.144 91.24C323.915 91.3413 323.662 91.392 323.384 91.392C323.134 91.392 322.899 91.3573 322.68 91.288C322.462 91.224 322.27 91.1253 322.104 90.992C321.944 90.8587 321.814 90.696 321.712 90.504C321.616 90.3067 321.56 90.0827 321.544 89.832H322.176ZM326.524 89.832C326.577 90.1573 326.713 90.4107 326.932 90.592C327.156 90.768 327.431 90.856 327.756 90.856C327.921 90.856 328.076 90.824 328.22 90.76C328.369 90.6907 328.495 90.592 328.596 90.464C328.703 90.336 328.785 90.184 328.844 90.008C328.908 89.8267 328.94 89.624 328.94 89.4C328.94 88.904 328.828 88.536 328.604 88.296C328.385 88.0507 328.105 87.928 327.764 87.928C327.492 87.928 327.257 87.9947 327.06 88.128C326.863 88.2613 326.729 88.448 326.66 88.688C326.644 88.7307 326.628 88.7653 326.612 88.792C326.596 88.8133 326.559 88.824 326.5 88.824H326.116C326.068 88.824 326.039 88.8187 326.028 88.808C326.017 88.792 326.012 88.7573 326.012 88.704L326.1 85.568C326.105 85.5093 326.116 85.4693 326.132 85.448C326.148 85.4267 326.18 85.416 326.228 85.416H329.276V85.96H326.716L326.604 87.928C326.727 87.7573 326.9 87.6267 327.124 87.536C327.353 87.4453 327.612 87.4 327.9 87.4C328.129 87.4 328.345 87.4427 328.548 87.528C328.756 87.608 328.935 87.7307 329.084 87.896C329.239 88.056 329.359 88.2613 329.444 88.512C329.535 88.7627 329.58 89.056 329.58 89.392C329.58 89.6853 329.535 89.9547 329.444 90.2C329.359 90.4453 329.236 90.656 329.076 90.832C328.916 91.008 328.721 91.144 328.492 91.24C328.263 91.3413 328.009 91.392 327.732 91.392C327.481 91.392 327.247 91.3573 327.028 91.288C326.809 91.224 326.617 91.1253 326.452 90.992C326.292 90.8587 326.161 90.696 326.06 90.504C325.964 90.3067 325.908 90.0827 325.892 89.832H326.524Z" fill="#222222"/>
<path d="M409.856 90.744C410.096 90.632 410.278 90.4587 410.4 90.224C410.523 89.984 410.584 89.7093 410.584 89.4C410.584 89.208 410.558 89.024 410.504 88.848C410.451 88.672 410.371 88.5173 410.264 88.384C410.163 88.2507 410.035 88.1467 409.88 88.072C409.726 87.992 409.547 87.952 409.344 87.952C409.163 87.952 408.998 87.9893 408.848 88.064C408.699 88.1387 408.568 88.24 408.456 88.368C408.35 88.496 408.264 88.6427 408.2 88.808C408.142 88.9733 408.112 89.1467 408.112 89.328C408.112 89.5467 408.142 89.7493 408.2 89.936C408.259 90.1173 408.342 90.2773 408.448 90.416C408.555 90.5547 408.683 90.664 408.832 90.744C408.982 90.8187 409.147 90.856 409.328 90.856C409.488 90.856 409.664 90.8187 409.856 90.744ZM410.496 86.808C410.491 86.6587 410.459 86.5227 410.4 86.4C410.342 86.2773 410.262 86.1733 410.16 86.088C410.064 86.0027 409.952 85.9387 409.824 85.896C409.696 85.848 409.56 85.824 409.416 85.824C409.134 85.824 408.899 85.912 408.712 86.088C408.526 86.264 408.376 86.4853 408.264 86.752C408.152 87.0133 408.072 87.2987 408.024 87.608C407.982 87.9173 407.96 88.2053 407.96 88.472C408.083 88.12 408.28 87.864 408.552 87.704C408.83 87.5387 409.147 87.456 409.504 87.456C409.766 87.456 410.003 87.504 410.216 87.6C410.43 87.6907 410.608 87.8213 410.752 87.992C410.902 88.1627 411.016 88.3707 411.096 88.616C411.176 88.856 411.216 89.1227 411.216 89.416C411.216 89.6933 411.174 89.952 411.088 90.192C411.008 90.432 410.888 90.6427 410.728 90.824C410.574 91 410.384 91.1387 410.16 91.24C409.936 91.3413 409.683 91.392 409.4 91.392C408.947 91.392 408.571 91.2747 408.272 91.04C407.974 90.8107 407.76 90.5173 407.632 90.16C407.558 89.9413 407.502 89.7067 407.464 89.456C407.427 89.2 407.408 88.888 407.408 88.52C407.408 87.9867 407.459 87.52 407.56 87.12C407.662 86.7147 407.8 86.376 407.976 86.104C408.152 85.832 408.363 85.6293 408.608 85.496C408.854 85.3573 409.12 85.288 409.408 85.288C409.91 85.288 410.307 85.424 410.6 85.696C410.899 85.968 411.075 86.3387 411.128 86.808H410.496ZM412.524 89.832C412.577 90.1573 412.713 90.4107 412.932 90.592C413.156 90.768 413.431 90.856 413.756 90.856C413.921 90.856 414.076 90.824 414.22 90.76C414.369 90.6907 414.495 90.592 414.596 90.464C414.703 90.336 414.785 90.184 414.844 90.008C414.908 89.8267 414.94 89.624 414.94 89.4C414.94 88.904 414.828 88.536 414.604 88.296C414.385 88.0507 414.105 87.928 413.764 87.928C413.492 87.928 413.257 87.9947 413.06 88.128C412.863 88.2613 412.729 88.448 412.66 88.688C412.644 88.7307 412.628 88.7653 412.612 88.792C412.596 88.8133 412.559 88.824 412.5 88.824H412.116C412.068 88.824 412.039 88.8187 412.028 88.808C412.017 88.792 412.012 88.7573 412.012 88.704L412.1 85.568C412.105 85.5093 412.116 85.4693 412.132 85.448C412.148 85.4267 412.18 85.416 412.228 85.416H415.276V85.96H412.716L412.604 87.928C412.727 87.7573 412.9 87.6267 413.124 87.536C413.353 87.4453 413.612 87.4 413.9 87.4C414.129 87.4 414.345 87.4427 414.548 87.528C414.756 87.608 414.935 87.7307 415.084 87.896C415.239 88.056 415.359 88.2613 415.444 88.512C415.535 88.7627 415.58 89.056 415.58 89.392C415.58 89.6853 415.535 89.9547 415.444 90.2C415.359 90.4453 415.236 90.656 415.076 90.832C414.916 91.008 414.721 91.144 414.492 91.24C414.263 91.3413 414.009 91.392 413.732 91.392C413.481 91.392 413.247 91.3573 413.028 91.288C412.809 91.224 412.617 91.1253 412.452 90.992C412.292 90.8587 412.161 90.696 412.06 90.504C411.964 90.3067 411.908 90.0827 411.892 89.832H412.524Z" fill="#222222"/>
<line x1="419" y1="88.75" x2="493" y2="88.75" stroke="#A3A3A3" stroke-width="0.5" stroke-miterlimit="16"/>
<path d="M160 88.75H231M246 88.75H317" stroke="#A3A3A3" stroke-width="0.5" stroke-miterlimit="16"/>
<line x1="333" y1="88.75" x2="404" y2="88.75" stroke="#A3A3A3" stroke-width="0.5" stroke-miterlimit="16"/>
<path d="M277.028 73.672C277.119 74.4507 277.543 74.84 278.3 74.84C278.7 74.84 279.012 74.736 279.236 74.528C279.465 74.32 279.58 74.024 279.58 73.64C279.58 73.4427 279.543 73.2747 279.468 73.136C279.393 72.992 279.295 72.8747 279.172 72.784C279.049 72.6933 278.908 72.6267 278.748 72.584C278.588 72.536 278.425 72.5093 278.26 72.504H277.94C277.881 72.504 277.844 72.4987 277.828 72.488C277.817 72.472 277.812 72.4347 277.812 72.376V72.08C277.812 72.016 277.817 71.9733 277.828 71.952C277.844 71.9307 277.881 71.92 277.94 71.92H278.204C278.369 71.9147 278.527 71.8933 278.676 71.856C278.825 71.8133 278.956 71.752 279.068 71.672C279.185 71.5867 279.279 71.48 279.348 71.352C279.417 71.224 279.452 71.0667 279.452 70.88C279.452 70.5387 279.34 70.28 279.116 70.104C278.897 69.9227 278.62 69.832 278.284 69.832C277.575 69.832 277.185 70.184 277.116 70.888H276.476C276.481 70.6427 276.529 70.4213 276.62 70.224C276.711 70.0213 276.836 69.8507 276.996 69.712C277.156 69.5733 277.345 69.4667 277.564 69.392C277.788 69.3173 278.036 69.28 278.308 69.28C278.548 69.28 278.775 69.312 278.988 69.376C279.201 69.4347 279.391 69.528 279.556 69.656C279.721 69.784 279.852 69.9467 279.948 70.144C280.044 70.3413 280.092 70.576 280.092 70.848C280.092 71.0187 280.063 71.1813 280.004 71.336C279.951 71.4853 279.871 71.6213 279.764 71.744C279.663 71.8667 279.537 71.9707 279.388 72.056C279.244 72.1413 279.084 72.2 278.908 72.232C279.105 72.2587 279.284 72.3147 279.444 72.4C279.604 72.4853 279.74 72.592 279.852 72.72C279.969 72.848 280.06 72.9973 280.124 73.168C280.188 73.3387 280.22 73.52 280.22 73.712C280.22 74.0107 280.164 74.2667 280.052 74.48C279.945 74.688 279.801 74.8613 279.62 75C279.444 75.1333 279.239 75.232 279.004 75.296C278.769 75.36 278.527 75.392 278.276 75.392C277.988 75.392 277.729 75.352 277.5 75.272C277.271 75.1973 277.076 75.0853 276.916 74.936C276.756 74.7867 276.631 74.6053 276.54 74.392C276.449 74.1787 276.401 73.9387 276.396 73.672H277.028ZM283.616 71.656C283.723 71.5653 283.808 71.456 283.872 71.328C283.936 71.1947 283.968 71.0427 283.968 70.872C283.968 70.712 283.936 70.568 283.872 70.44C283.808 70.3067 283.723 70.1947 283.616 70.104C283.509 70.008 283.381 69.936 283.232 69.888C283.083 69.84 282.925 69.816 282.76 69.816C282.595 69.816 282.437 69.84 282.288 69.888C282.144 69.936 282.016 70.008 281.904 70.104C281.797 70.1947 281.712 70.3067 281.648 70.44C281.584 70.568 281.552 70.712 281.552 70.872C281.552 71.0427 281.581 71.1947 281.64 71.328C281.704 71.456 281.789 71.5653 281.896 71.656C282.003 71.7413 282.131 71.808 282.28 71.856C282.429 71.904 282.589 71.928 282.76 71.928C282.925 71.928 283.083 71.904 283.232 71.856C283.381 71.808 283.509 71.7413 283.616 71.656ZM283.696 74.528C283.925 74.3147 284.04 74.032 284.04 73.68C284.04 73.488 284.003 73.32 283.928 73.176C283.853 73.0267 283.755 72.904 283.632 72.808C283.515 72.7067 283.379 72.632 283.224 72.584C283.075 72.536 282.92 72.512 282.76 72.512C282.6 72.512 282.443 72.536 282.288 72.584C282.133 72.632 281.995 72.7067 281.872 72.808C281.755 72.904 281.659 73.0267 281.584 73.176C281.515 73.32 281.48 73.488 281.48 73.68C281.48 74.032 281.592 74.3147 281.816 74.528C282.045 74.7413 282.36 74.848 282.76 74.848C283.155 74.848 283.467 74.7413 283.696 74.528ZM283.992 72.048C283.864 72.144 283.72 72.2133 283.56 72.256C283.912 72.352 284.187 72.5253 284.384 72.776C284.581 73.0213 284.68 73.32 284.68 73.672C284.68 73.944 284.632 74.1867 284.536 74.4C284.445 74.6133 284.315 74.7947 284.144 74.944C283.973 75.088 283.768 75.1973 283.528 75.272C283.293 75.3467 283.035 75.384 282.752 75.384C282.469 75.384 282.211 75.3467 281.976 75.272C281.741 75.1973 281.539 75.088 281.368 74.944C281.203 74.7947 281.072 74.6133 280.976 74.4C280.885 74.1867 280.84 73.944 280.84 73.672C280.84 73.4427 280.893 73.224 281 73.016C281.112 72.808 281.272 72.6267 281.48 72.472C281.517 72.4453 281.552 72.4213 281.584 72.4C281.621 72.3787 281.661 72.3573 281.704 72.336C281.747 72.3147 281.789 72.296 281.832 72.28C281.88 72.2587 281.925 72.24 281.968 72.224C281.803 72.192 281.653 72.1333 281.52 72.048C281.392 71.9573 281.283 71.8507 281.192 71.728C281.101 71.6053 281.032 71.4693 280.984 71.32C280.936 71.1707 280.912 71.0187 280.912 70.864C280.912 70.6133 280.957 70.3893 281.048 70.192C281.139 69.9947 281.264 69.8293 281.424 69.696C281.589 69.5573 281.784 69.4533 282.008 69.384C282.237 69.3147 282.488 69.28 282.76 69.28C283.032 69.28 283.28 69.3147 283.504 69.384C283.733 69.4533 283.928 69.5573 284.088 69.696C284.253 69.8293 284.381 69.9947 284.472 70.192C284.563 70.3893 284.608 70.6133 284.608 70.864C284.608 71.0773 284.552 71.2907 284.44 71.504C284.328 71.7173 284.179 71.8987 283.992 72.048ZM286.988 75.256H286.396L289.556 69.256H290.148L286.988 75.256ZM287.492 72.024C287.385 72.168 287.252 72.2827 287.092 72.368C286.932 72.4533 286.745 72.496 286.532 72.496C286.324 72.496 286.14 72.4533 285.98 72.368C285.82 72.2827 285.684 72.168 285.572 72.024C285.465 71.88 285.385 71.7147 285.332 71.528C285.278 71.336 285.252 71.136 285.252 70.928C285.252 70.72 285.278 70.5227 285.332 70.336C285.385 70.144 285.465 69.976 285.572 69.832C285.684 69.688 285.82 69.5733 285.98 69.488C286.14 69.3973 286.324 69.352 286.532 69.352C286.745 69.352 286.932 69.3973 287.092 69.488C287.252 69.5733 287.385 69.688 287.492 69.832C287.598 69.976 287.678 70.144 287.732 70.336C287.79 70.5227 287.82 70.72 287.82 70.928C287.82 71.136 287.79 71.336 287.732 71.528C287.678 71.7147 287.598 71.88 287.492 72.024ZM290.964 74.824C290.857 74.968 290.724 75.0827 290.564 75.168C290.404 75.2587 290.22 75.304 290.012 75.304C289.804 75.304 289.62 75.2587 289.46 75.168C289.3 75.0827 289.164 74.968 289.052 74.824C288.945 74.68 288.865 74.5147 288.812 74.328C288.758 74.136 288.732 73.936 288.732 73.728C288.732 73.52 288.758 73.3227 288.812 73.136C288.865 72.944 288.945 72.776 289.052 72.632C289.164 72.488 289.3 72.3733 289.46 72.288C289.62 72.2027 289.804 72.16 290.012 72.16C290.22 72.16 290.404 72.2027 290.564 72.288C290.724 72.3733 290.857 72.488 290.964 72.632C291.076 72.776 291.158 72.944 291.212 73.136C291.27 73.3227 291.3 73.52 291.3 73.728C291.3 73.936 291.27 74.136 291.212 74.328C291.158 74.5147 291.076 74.68 290.964 74.824ZM286.86 71.96C287.004 71.8533 287.105 71.7067 287.164 71.52C287.222 71.3333 287.252 71.1387 287.252 70.936C287.252 70.8027 287.238 70.6667 287.212 70.528C287.19 70.3893 287.15 70.2667 287.092 70.16C287.033 70.0533 286.956 69.9653 286.86 69.896C286.769 69.8267 286.657 69.792 286.524 69.792C286.385 69.792 286.27 69.8267 286.18 69.896C286.094 69.9653 286.025 70.0533 285.972 70.16C285.918 70.2667 285.881 70.3893 285.86 70.528C285.838 70.6667 285.828 70.8027 285.828 70.936C285.828 71.0693 285.838 71.2027 285.86 71.336C285.881 71.4693 285.918 71.5893 285.972 71.696C286.025 71.8027 286.094 71.8907 286.18 71.96C286.27 72.024 286.385 72.056 286.524 72.056C286.657 72.056 286.769 72.024 286.86 71.96ZM290.34 74.76C290.484 74.6533 290.585 74.5067 290.644 74.32C290.702 74.1333 290.732 73.9387 290.732 73.736C290.732 73.6027 290.718 73.4693 290.692 73.336C290.67 73.1973 290.63 73.0747 290.572 72.968C290.513 72.8613 290.436 72.776 290.34 72.712C290.249 72.6427 290.137 72.608 290.004 72.608C289.865 72.608 289.75 72.6427 289.66 72.712C289.574 72.776 289.505 72.8613 289.452 72.968C289.398 73.0747 289.361 73.1973 289.34 73.336C289.318 73.4693 289.308 73.6027 289.308 73.736C289.308 73.8693 289.318 74.0027 289.34 74.136C289.361 74.2693 289.398 74.3893 289.452 74.496C289.505 74.6027 289.574 74.6907 289.66 74.76C289.75 74.824 289.865 74.856 290.004 74.856C290.137 74.856 290.249 74.824 290.34 74.76Z" fill="#444444"/>
<path d="M365.156 75.256H361.644C361.596 75.256 361.564 75.248 361.548 75.232C361.537 75.216 361.532 75.184 361.532 75.136V74.656C361.655 74.5387 361.809 74.3867 361.996 74.2C362.188 74.0133 362.388 73.808 362.596 73.584C362.809 73.3547 363.02 73.1173 363.228 72.872C363.441 72.6267 363.631 72.384 363.796 72.144C363.967 71.8987 364.105 71.6667 364.212 71.448C364.319 71.2293 364.372 71.0373 364.372 70.872C364.377 70.52 364.276 70.2587 364.068 70.088C363.865 69.9173 363.604 69.832 363.284 69.832C362.975 69.832 362.721 69.936 362.524 70.144C362.332 70.352 362.236 70.632 362.236 70.984H361.58C361.58 70.7227 361.623 70.488 361.708 70.28C361.799 70.072 361.921 69.8933 362.076 69.744C362.231 69.5947 362.412 69.48 362.62 69.4C362.828 69.32 363.055 69.28 363.3 69.28C363.545 69.28 363.772 69.3147 363.98 69.384C364.193 69.448 364.377 69.544 364.532 69.672C364.687 69.8 364.807 69.96 364.892 70.152C364.983 70.344 365.028 70.568 365.028 70.824C365.028 71.0427 364.98 71.272 364.884 71.512C364.788 71.752 364.66 71.9947 364.5 72.24C364.345 72.48 364.167 72.72 363.964 72.96C363.767 73.1947 363.564 73.4187 363.356 73.632C363.153 73.8453 362.956 74.0453 362.764 74.232C362.572 74.4133 362.404 74.5707 362.26 74.704H365.156V75.256ZM368.312 73.424V70.776L368.328 70.04L366.264 73.424H368.312ZM368.92 75.256H368.296V73.976H365.808C365.707 73.976 365.656 73.9253 365.656 73.824V73.488C365.656 73.4133 365.68 73.3387 365.728 73.264L368.064 69.432C368.096 69.3627 368.149 69.328 368.224 69.328H368.768C368.827 69.328 368.867 69.3387 368.888 69.36C368.909 69.3813 368.92 69.4213 368.92 69.48V73.424H369.792V73.976H368.92V75.256ZM371.988 75.256H371.396L374.556 69.256H375.148L371.988 75.256ZM372.492 72.024C372.385 72.168 372.252 72.2827 372.092 72.368C371.932 72.4533 371.745 72.496 371.532 72.496C371.324 72.496 371.14 72.4533 370.98 72.368C370.82 72.2827 370.684 72.168 370.572 72.024C370.465 71.88 370.385 71.7147 370.332 71.528C370.278 71.336 370.252 71.136 370.252 70.928C370.252 70.72 370.278 70.5227 370.332 70.336C370.385 70.144 370.465 69.976 370.572 69.832C370.684 69.688 370.82 69.5733 370.98 69.488C371.14 69.3973 371.324 69.352 371.532 69.352C371.745 69.352 371.932 69.3973 372.092 69.488C372.252 69.5733 372.385 69.688 372.492 69.832C372.598 69.976 372.678 70.144 372.732 70.336C372.79 70.5227 372.82 70.72 372.82 70.928C372.82 71.136 372.79 71.336 372.732 71.528C372.678 71.7147 372.598 71.88 372.492 72.024ZM375.964 74.824C375.857 74.968 375.724 75.0827 375.564 75.168C375.404 75.2587 375.22 75.304 375.012 75.304C374.804 75.304 374.62 75.2587 374.46 75.168C374.3 75.0827 374.164 74.968 374.052 74.824C373.945 74.68 373.865 74.5147 373.812 74.328C373.758 74.136 373.732 73.936 373.732 73.728C373.732 73.52 373.758 73.3227 373.812 73.136C373.865 72.944 373.945 72.776 374.052 72.632C374.164 72.488 374.3 72.3733 374.46 72.288C374.62 72.2027 374.804 72.16 375.012 72.16C375.22 72.16 375.404 72.2027 375.564 72.288C375.724 72.3733 375.857 72.488 375.964 72.632C376.076 72.776 376.158 72.944 376.212 73.136C376.27 73.3227 376.3 73.52 376.3 73.728C376.3 73.936 376.27 74.136 376.212 74.328C376.158 74.5147 376.076 74.68 375.964 74.824ZM371.86 71.96C372.004 71.8533 372.105 71.7067 372.164 71.52C372.222 71.3333 372.252 71.1387 372.252 70.936C372.252 70.8027 372.238 70.6667 372.212 70.528C372.19 70.3893 372.15 70.2667 372.092 70.16C372.033 70.0533 371.956 69.9653 371.86 69.896C371.769 69.8267 371.657 69.792 371.524 69.792C371.385 69.792 371.27 69.8267 371.18 69.896C371.094 69.9653 371.025 70.0533 370.972 70.16C370.918 70.2667 370.881 70.3893 370.86 70.528C370.838 70.6667 370.828 70.8027 370.828 70.936C370.828 71.0693 370.838 71.2027 370.86 71.336C370.881 71.4693 370.918 71.5893 370.972 71.696C371.025 71.8027 371.094 71.8907 371.18 71.96C371.27 72.024 371.385 72.056 371.524 72.056C371.657 72.056 371.769 72.024 371.86 71.96ZM375.34 74.76C375.484 74.6533 375.585 74.5067 375.644 74.32C375.702 74.1333 375.732 73.9387 375.732 73.736C375.732 73.6027 375.718 73.4693 375.692 73.336C375.67 73.1973 375.63 73.0747 375.572 72.968C375.513 72.8613 375.436 72.776 375.34 72.712C375.249 72.6427 375.137 72.608 375.004 72.608C374.865 72.608 374.75 72.6427 374.66 72.712C374.574 72.776 374.505 72.8613 374.452 72.968C374.398 73.0747 374.361 73.1973 374.34 73.336C374.318 73.4693 374.308 73.6027 374.308 73.736C374.308 73.8693 374.318 74.0027 374.34 74.136C374.361 74.2693 374.398 74.3893 374.452 74.496C374.505 74.6027 374.574 74.6907 374.66 74.76C374.75 74.824 374.865 74.856 375.004 74.856C375.137 74.856 375.249 74.824 375.34 74.76Z" fill="#444444"/>
<circle cx="494" cy="89" r="2" fill="#C4C4C4"/>
<circle cx="69" cy="89" r="2" fill="#C4C4C4"/>
<defs>
<clipPath id="clip0_101:153">
<rect width="429" height="80" fill="white" transform="translate(67)"/>
</clipPath>
<clipPath id="clip1_101:153">
<rect width="429" height="80" fill="white" transform="translate(67)"/>
</clipPath>
</defs>
</svg>
