<svg width="185" height="34" viewBox="0 0 185 34" fill="none" xmlns="http://www.w3.org/2000/svg">
<path d="M4.816 7.464C4.36 7.312 3.88 7.024 3.52 6.632C3.16 6.248 2.912 5.744 2.912 5.168V4.816H4.36V4.28H0.776V4.816H2.256V5.152C2.256 5.792 2.016 6.312 1.656 6.736C1.296 7.16 0.808 7.488 0.264 7.712L0.736 8.144C1.096 7.96 1.496 7.728 1.824 7.416C2.152 7.12 2.424 6.76 2.584 6.344C2.784 6.752 3.096 7.088 3.44 7.352C3.768 7.616 4.12 7.816 4.4 7.936L4.816 7.464ZM6.248 3.952H5.624V9.152H6.248V3.952ZM6.448 10.352H2.304V8.624H1.656V10.728C1.656 10.856 1.696 10.896 1.824 10.896H6.448V10.352ZM11.7526 6.84C10.7846 7.032 9.60856 7.104 8.54456 7.104H8.15256V4.832H10.7766V4.28H7.69656C7.56856 4.28 7.52856 4.32 7.52856 4.448V7.512C7.52856 7.64 7.56056 7.672 7.69656 7.672H8.24856C8.85656 7.672 9.50456 7.648 10.1126 7.608C10.7206 7.552 11.2726 7.488 11.7526 7.392V6.84ZM12.7126 6.264H13.6726V5.704H12.7126V3.952H12.0806V9.152H12.7126V6.264ZM12.9606 10.352H8.88856V8.568H8.24856V10.728C8.24856 10.856 8.28856 10.896 8.41656 10.896H12.9606V10.352ZM17.9611 4.36H14.2411V4.896H15.7531V5.48C15.7531 6.312 15.5691 7.04 15.2251 7.648C14.8811 8.288 14.3771 8.784 13.7291 9.176C13.9211 9.304 14.1451 9.48 14.2971 9.608C14.6491 9.36 15.0411 9 15.3611 8.552C15.6811 8.136 15.9451 7.68 16.0811 7.2C16.2811 7.704 16.5531 8.16 16.8971 8.552C17.1851 8.904 17.5371 9.192 17.8971 9.416C18.0011 9.296 18.2171 9.088 18.3531 8.968C17.6891 8.592 17.2011 8.104 16.8731 7.504C16.5611 6.952 16.4011 6.312 16.4011 5.584V4.896H17.9611V4.36ZM19.4891 7.24H20.5451V6.672H19.4891V3.952H18.8651V11.048H19.4891V7.24ZM23.986 6.808V5.72H25.978V6.808H23.986ZM28.754 3.952H28.122V4.88H26.586V4.176H25.978V5.208H23.986V4.176H23.37V7.152C23.37 7.28 23.41 7.32 23.538 7.32H26.418C26.546 7.32 26.586 7.28 26.586 7.152V6.672H28.122V7.608H28.754V3.952ZM26.586 6.176V5.376H28.122V6.176H26.586ZM28.906 10.464H24.818V9.728H28.57C28.698 9.728 28.738 9.688 28.738 9.56V8.12C28.738 7.992 28.698 7.952 28.57 7.952H24.138V8.472H28.058V9.24H24.306C24.178 9.24 24.138 9.28 24.138 9.408V10.808C24.138 10.936 24.178 10.976 24.306 10.976H28.906V10.464ZM38.3069 7.296H31.8109V7.84H38.3069V7.296ZM37.5549 5.28C37.5549 4.888 37.3469 4.568 36.9229 4.304C36.4989 4.04 35.8749 3.904 35.0669 3.904C33.4349 3.904 32.5709 4.48 32.5709 5.28C32.5709 6.144 33.3789 6.672 35.0669 6.672C36.7629 6.672 37.5549 6.144 37.5549 5.28ZM36.3789 5.96C36.0509 6.104 35.6109 6.176 35.0669 6.176C33.9389 6.176 33.2509 5.888 33.2509 5.28C33.2509 4.736 33.9709 4.392 35.0669 4.392C35.6029 4.392 36.0429 4.472 36.3709 4.632C36.7069 4.792 36.8749 5.008 36.8749 5.28C36.8749 5.576 36.7069 5.808 36.3789 5.96ZM37.4269 10.376C37.5389 10.208 37.5949 10.032 37.5949 9.84C37.5949 9.456 37.3789 9.136 36.9389 8.872C36.4989 8.608 35.8669 8.472 35.0589 8.472C34.2429 8.472 33.6109 8.608 33.1709 8.872C32.7389 9.136 32.5229 9.464 32.5229 9.84C32.5229 10.608 33.4189 11.192 35.0589 11.192C36.2829 11.192 37.1149 10.864 37.4269 10.376ZM36.3869 10.464C36.0029 10.616 35.5629 10.696 35.0589 10.696C33.9389 10.696 33.1949 10.352 33.1949 9.84C33.1949 9.296 33.9389 8.952 35.0589 8.952C35.6189 8.952 36.0589 9.032 36.3869 9.2C36.7389 9.368 36.9149 9.584 36.9149 9.848C36.9149 10.112 36.7389 10.312 36.3869 10.464ZM43.3394 6.368C42.3714 6.56 41.1954 6.64 40.1314 6.64H39.7394V4.816H42.3554V4.28H39.2834C39.1554 4.28 39.1154 4.32 39.1154 4.448V7.032C39.1154 7.16 39.1474 7.192 39.2834 7.192H39.8354C40.4434 7.192 41.0914 7.168 41.6994 7.128C42.3074 7.072 42.8594 7.008 43.3394 6.912V6.368ZM44.2994 5.808H45.2754V5.256H44.2994V3.952H43.6754V7.64H44.2994V5.808ZM40.4354 10.448V9.44H43.6834V10.448H40.4354ZM44.3074 8H43.6834V8.912H40.4354V8H39.8114V10.8C39.8114 10.928 39.8514 10.968 39.9794 10.968H44.1394C44.2674 10.968 44.3074 10.928 44.3074 10.8V8ZM45.964 4.28V4.824H48.452C48.3 5.432 47.964 5.936 47.444 6.336C46.932 6.744 46.284 7.04 45.572 7.224L45.964 7.688C46.836 7.424 47.564 7.024 48.156 6.48C48.74 5.944 49.084 5.272 49.196 4.448C49.196 4.32 49.156 4.28 49.028 4.28H45.964ZM51.132 6.072H52.132V5.52H51.132V3.952H50.508V7.64H51.132V6.072ZM47.108 10.472V9.432H48.396V10.472H47.108ZM51.916 10.624C51.268 10.232 50.748 9.528 50.748 8.536V7.992H50.116V8.536C50.116 9.528 49.652 10.152 48.98 10.6V8H48.38V8.944H47.124V8H46.54V10.8C46.54 10.928 46.58 10.968 46.708 10.968H48.812C48.94 10.968 48.98 10.928 48.98 10.8V10.648L49.404 11.048C49.852 10.72 50.212 10.312 50.428 9.672C50.62 10.28 51.028 10.712 51.476 11.04L51.916 10.624Z" fill="#444444"/>
<path d="M149.672 4.224H149.016V5.552C149.016 6.352 148.84 7.056 148.512 7.664C148.152 8.304 147.648 8.824 147 9.224C147.184 9.344 147.424 9.528 147.552 9.648C147.904 9.416 148.296 9.048 148.624 8.6C148.944 8.184 149.216 7.728 149.344 7.248C149.536 7.768 149.824 8.216 150.152 8.6C150.464 8.952 150.808 9.248 151.136 9.472C151.192 9.416 151.264 9.336 151.352 9.248C151.44 9.176 151.528 9.08 151.616 9.016C150.968 8.64 150.472 8.152 150.128 7.56C149.816 7.04 149.672 6.4 149.672 5.664V4.224ZM152.84 7.24H153.888V6.672H152.84V3.952H152.208V11.048H152.84V7.24ZM157.481 8.464C157.353 8.496 157.041 8.536 156.697 8.568C156.353 8.6 155.985 8.624 155.737 8.624H155.297V4.272H154.657V9.048C154.657 9.176 154.697 9.216 154.825 9.216H155.281C155.761 9.216 156.249 9.184 156.657 9.144C157.049 9.104 157.361 9.064 157.481 9.032V8.464ZM160.041 3.952H159.425V6.496H158.433V4.072H157.817V10.704H158.433V7.104H159.425V11.048H160.041V3.952ZM168.897 10.352C169.017 10.184 169.073 9.992 169.073 9.768C169.073 9.336 168.849 8.992 168.409 8.736C167.969 8.48 167.369 8.352 166.625 8.352C165.121 8.352 164.185 8.896 164.185 9.76C164.185 10.632 165.113 11.168 166.625 11.168C167.753 11.168 168.569 10.872 168.897 10.352ZM167.713 7.024C167.329 7.088 166.977 7.12 166.529 7.144L166.561 4.808H167.233V4.28H163.409V4.808H164.041L164.081 7.176H163.209V7.712H165.209C166.073 7.712 166.945 7.672 167.713 7.544V7.024ZM166.625 10.664C166.097 10.664 165.673 10.584 165.345 10.424C165.017 10.264 164.849 10.04 164.849 9.752C164.849 9.472 165.017 9.248 165.345 9.096C165.713 8.944 166.137 8.864 166.625 8.864C167.145 8.864 167.569 8.944 167.905 9.104C168.241 9.264 168.409 9.488 168.409 9.776C168.409 10.064 168.241 10.28 167.905 10.432C167.529 10.584 167.105 10.664 166.625 10.664ZM169.009 3.952H168.377V4.976H167.265V5.488H168.377V6.136H167.265V6.648H168.377V8.328H169.009V3.952ZM164.649 4.808H165.961L165.913 7.168C165.793 7.176 165.665 7.176 165.529 7.176H164.681L164.649 4.808ZM174.69 7.496H176.33V6.952H175.242C175.314 6.576 175.386 6.128 175.45 5.672C175.514 5.216 175.554 4.744 175.586 4.328C175.586 4.2 175.546 4.16 175.418 4.16H170.586V4.704H174.938C174.914 5.024 174.882 5.408 174.818 5.8C174.762 6.192 174.698 6.6 174.634 6.952H169.842V7.496H172.146V9.56H172.77V7.496H174.058V9.56H174.69V7.496ZM175.714 10.352H171.338V8.608H170.722V10.728C170.722 10.856 170.762 10.896 170.89 10.896H175.714V10.352Z" fill="#444444"/>
<rect x="57" y="22" width="128" height="11" fill="#C4C4C4"/>
<rect x="131" y="27" width="5" height="5" transform="rotate(-45 131 27)" fill="#072143"/>
<path d="M30 15V27H57.5" stroke="#595959" stroke-width="0.5"/>
<path d="M134.5 20V8H143" stroke="#595959" stroke-width="0.5"/>
</svg>
