<svg width="176" height="176" viewBox="0 0 176 176" fill="none" xmlns="http://www.w3.org/2000/svg">
<rect x="0.5" y="0.5" width="175" height="175" stroke="#101010"/>
<rect x="69.25" y="69.25" width="37.5" height="37.5" stroke="#C4C4C4" stroke-width="0.5"/>
<path fill-rule="evenodd" clip-rule="evenodd" d="M83 35.5H35.5V83H35V35.5V35H35.5H83V35.5Z" fill="#C4C4C4"/>
<path fill-rule="evenodd" clip-rule="evenodd" d="M83 140.5H35.5V93H35V140.5V141H35.5H83V140.5Z" fill="#C4C4C4"/>
<path fill-rule="evenodd" clip-rule="evenodd" d="M93 35.5H140.5V83H141V35.5V35H140.5H93V35.5Z" fill="#C4C4C4"/>
<path fill-rule="evenodd" clip-rule="evenodd" d="M93 140.5H140.5V93H141V140.5V141H140.5H93V140.5Z" fill="#C4C4C4"/>
<path fill-rule="evenodd" clip-rule="evenodd" d="M83 35.5H35.5V83H35V35.5V35H35.5H83V35.5Z" fill="#C4C4C4"/>
<path fill-rule="evenodd" clip-rule="evenodd" d="M83 140.5H35.5V93H35V140.5V141H35.5H83V140.5Z" fill="#C4C4C4"/>
<path fill-rule="evenodd" clip-rule="evenodd" d="M93 35.5H140.5V83H141V35.5V35H140.5H93V35.5Z" fill="#C4C4C4"/>
<path fill-rule="evenodd" clip-rule="evenodd" d="M93 140.5H140.5V93H141V140.5V141H140.5H93V140.5Z" fill="#C4C4C4"/>
<path d="M85.3 3.2L88 0.5L90.7 3.2" fill="#101010"/>
<path d="M85.3 172.8L88 175.5L90.7 172.8" fill="#101010"/>
<path d="M88.2 92.5H87.7V136.5H88.2V92.5Z" fill="#101010"/>
<path d="M88.2 1.5H87.7V31H88.2V1.5Z" fill="#101010"/>
<path d="M88.2 39H87.7V83H88.2V39Z" fill="#101010"/>
<path d="M88.2 144.8H87.7V173.5H88.2V144.8Z" fill="#101010"/>
<path d="M92.95 88.25L92.95 88.75L136.95 88.75L136.95 88.25L92.95 88.25Z" fill="#101010"/>
<path d="M1.94998 88.25L1.94998 88.75L31.45 88.75L31.45 88.25L1.94998 88.25Z" fill="#101010"/>
<path d="M39.45 88.25L39.45 88.75L83.45 88.75L83.45 88.25L39.45 88.25Z" fill="#101010"/>
<path d="M145.25 88.25L145.25 88.75L173.95 88.75L173.95 88.25L145.25 88.25Z" fill="#101010"/>
<path d="M3.40001 90.7L0.700012 88L3.40001 85.3" fill="#101010"/>
<path d="M173 90.7L175.7 88L173 85.3" fill="#101010"/>
<path d="M86.6644 36.792C86.5084 36.8505 86.3654 36.883 86.2354 36.883C85.6439 36.883 85.2474 36.3435 85.2474 35.6415C85.2474 35.05 85.6634 34.5235 86.2484 34.5235C86.9049 34.5235 87.2559 35.0695 87.2559 35.7C87.2559 36.2005 87.0544 36.61 86.6644 36.792ZM87.6979 33.594C87.6134 32.8335 87.1129 32.359 86.3004 32.359C85.3644 32.359 84.6754 33.2495 84.6754 34.985C84.6754 35.583 84.7339 35.96 84.8574 36.3175C85.0654 36.896 85.5594 37.3185 86.2939 37.3185C87.2104 37.3185 87.7694 36.6165 87.7694 35.713C87.7694 34.751 87.2364 34.1205 86.3784 34.1205C85.7999 34.1205 85.3254 34.374 85.1239 34.946C85.1239 34.0815 85.3904 32.7945 86.3069 32.7945C86.7749 32.7945 87.1649 33.1 87.1844 33.594H87.6979ZM88.3185 36.051C88.3705 36.87 88.9945 37.3185 89.8135 37.3185C90.7235 37.3185 91.315 36.649 91.315 35.6935C91.315 34.6015 90.704 34.075 89.95 34.075C89.482 34.075 89.0985 34.2245 88.897 34.504L88.988 32.905H91.068V32.463H88.5915C88.5135 32.463 88.494 32.489 88.4875 32.5865L88.416 35.1345C88.416 35.219 88.4225 35.232 88.5005 35.232H88.8125C88.91 35.232 88.9165 35.193 88.9425 35.1215C89.053 34.7315 89.3975 34.504 89.8395 34.504C90.392 34.504 90.795 34.894 90.795 35.7C90.795 36.428 90.379 36.883 89.833 36.883C89.3065 36.883 88.9165 36.5775 88.832 36.051H88.3185Z" fill="#444444"/>
<path d="M84.5974 141.921C84.6169 142.792 85.1954 143.319 86.1249 143.319C86.9374 143.319 87.7044 142.915 87.7044 141.953C87.7044 141.323 87.2754 140.835 86.6384 140.751C87.2169 140.647 87.6004 140.172 87.6004 139.626C87.6004 138.742 86.9244 138.352 86.1509 138.352C85.2734 138.352 84.6819 138.853 84.6624 139.659H85.1824C85.2409 139.087 85.5529 138.801 86.1314 138.801C86.6774 138.801 87.0804 139.1 87.0804 139.652C87.0804 140.25 86.5994 140.478 86.0664 140.497H85.8519C85.7544 140.497 85.7479 140.523 85.7479 140.627V140.868C85.7479 140.965 85.7544 140.972 85.8519 140.972H86.1119C86.6579 140.991 87.1844 141.251 87.1844 141.895C87.1844 142.519 86.7944 142.87 86.1444 142.87C85.5269 142.87 85.1824 142.551 85.1109 141.921H84.5974ZM88.3185 142.051C88.3705 142.87 88.9945 143.319 89.8135 143.319C90.7235 143.319 91.315 142.649 91.315 141.693C91.315 140.601 90.704 140.075 89.95 140.075C89.482 140.075 89.0985 140.224 88.897 140.504L88.988 138.905H91.068V138.463H88.5915C88.5135 138.463 88.494 138.489 88.4875 138.586L88.416 141.134C88.416 141.219 88.4225 141.232 88.5005 141.232H88.8125C88.91 141.232 88.9165 141.193 88.9425 141.121C89.053 140.731 89.3975 140.504 89.8395 140.504C90.392 140.504 90.795 140.894 90.795 141.7C90.795 142.428 90.379 142.883 89.833 142.883C89.3065 142.883 88.9165 142.577 88.832 142.051H88.3185Z" fill="#444444"/>
<path d="M84.7859 89.051C84.8379 89.87 85.4619 90.3185 86.2809 90.3185C87.1909 90.3185 87.7824 89.649 87.7824 88.6935C87.7824 87.6015 87.1714 87.075 86.4174 87.075C85.9494 87.075 85.5659 87.2245 85.3644 87.504L85.4554 85.905H87.5354V85.463H85.0589C84.9809 85.463 84.9614 85.489 84.9549 85.5865L84.8834 88.1345C84.8834 88.219 84.8899 88.232 84.9679 88.232H85.2799C85.3774 88.232 85.3839 88.193 85.4099 88.1215C85.5204 87.7315 85.8649 87.504 86.3069 87.504C86.8594 87.504 87.2624 87.894 87.2624 88.7C87.2624 89.428 86.8464 89.883 86.3004 89.883C85.7739 89.883 85.3839 89.5775 85.2994 89.051H84.7859ZM90.171 89.7725C90.0605 89.844 89.9305 89.8765 89.768 89.8765C88.8385 89.8765 88.7735 88.5245 88.7735 87.8095C88.7735 87.0815 88.8515 85.7165 89.768 85.7165C90.704 85.7165 90.8145 87.0815 90.8145 87.8095C90.8145 88.4335 90.743 89.428 90.171 89.7725ZM91.0485 89.5255C91.2825 89.0315 91.354 88.4335 91.354 87.8095C91.354 86.5875 91.068 85.268 89.768 85.268C88.4875 85.268 88.234 86.5875 88.234 87.8095C88.234 89.025 88.4875 90.3315 89.768 90.3315C90.418 90.3315 90.821 90 91.0485 89.5255Z" fill="#444444"/>
<path d="M31.5974 88.921C31.6169 89.792 32.1954 90.3185 33.1249 90.3185C33.9374 90.3185 34.7044 89.9155 34.7044 88.9535C34.7044 88.323 34.2754 87.8355 33.6384 87.751C34.2169 87.647 34.6004 87.1725 34.6004 86.6265C34.6004 85.7425 33.9244 85.3525 33.1509 85.3525C32.2734 85.3525 31.6819 85.853 31.6624 86.659H32.1824C32.2409 86.087 32.5529 85.801 33.1314 85.801C33.6774 85.801 34.0804 86.1 34.0804 86.6525C34.0804 87.2505 33.5994 87.478 33.0664 87.4975H32.8519C32.7544 87.4975 32.7479 87.5235 32.7479 87.6275V87.868C32.7479 87.9655 32.7544 87.972 32.8519 87.972H33.1119C33.6579 87.9915 34.1844 88.2515 34.1844 88.895C34.1844 89.519 33.7944 89.87 33.1444 89.87C32.5269 89.87 32.1824 89.5515 32.1109 88.921H31.5974ZM35.3185 89.051C35.3705 89.87 35.9945 90.3185 36.8135 90.3185C37.7235 90.3185 38.315 89.649 38.315 88.6935C38.315 87.6015 37.704 87.075 36.95 87.075C36.482 87.075 36.0985 87.2245 35.897 87.504L35.988 85.905H38.068V85.463H35.5915C35.5135 85.463 35.494 85.489 35.4875 85.5865L35.416 88.1345C35.416 88.219 35.4225 88.232 35.5005 88.232H35.8125C35.91 88.232 35.9165 88.193 35.9425 88.1215C36.053 87.7315 36.3975 87.504 36.8395 87.504C37.392 87.504 37.795 87.894 37.795 88.7C37.795 89.428 37.379 89.883 36.833 89.883C36.3065 89.883 35.9165 89.5775 35.832 89.051H35.3185Z" fill="#444444"/>
<path d="M139.664 89.792C139.508 89.8505 139.365 89.883 139.235 89.883C138.644 89.883 138.247 89.3435 138.247 88.6415C138.247 88.05 138.663 87.5235 139.248 87.5235C139.905 87.5235 140.256 88.0695 140.256 88.7C140.256 89.2005 140.054 89.61 139.664 89.792ZM140.698 86.594C140.613 85.8335 140.113 85.359 139.3 85.359C138.364 85.359 137.675 86.2495 137.675 87.985C137.675 88.583 137.734 88.96 137.857 89.3175C138.065 89.896 138.559 90.3185 139.294 90.3185C140.21 90.3185 140.769 89.6165 140.769 88.713C140.769 87.751 140.236 87.1205 139.378 87.1205C138.8 87.1205 138.325 87.374 138.124 87.946C138.124 87.0815 138.39 85.7945 139.307 85.7945C139.775 85.7945 140.165 86.1 140.184 86.594H140.698ZM141.318 89.051C141.37 89.87 141.994 90.3185 142.813 90.3185C143.724 90.3185 144.315 89.649 144.315 88.6935C144.315 87.6015 143.704 87.075 142.95 87.075C142.482 87.075 142.098 87.2245 141.897 87.504L141.988 85.905H144.068V85.463H141.591C141.513 85.463 141.494 85.489 141.487 85.5865L141.416 88.1345C141.416 88.219 141.422 88.232 141.5 88.232H141.812C141.91 88.232 141.916 88.193 141.942 88.1215C142.053 87.7315 142.398 87.504 142.84 87.504C143.392 87.504 143.795 87.894 143.795 88.7C143.795 89.428 143.379 89.883 142.833 89.883C142.307 89.883 141.916 89.5775 141.832 89.051H141.318Z" fill="#444444"/>
</svg>
