<svg width="194" height="194" viewBox="0 0 194 194" fill="none" xmlns="http://www.w3.org/2000/svg">
<mask id="mask0" mask-type="alpha" maskUnits="userSpaceOnUse" x="9" y="9" width="176" height="176">
<circle cx="97" cy="97" r="88" fill="#C4C4C4"/>
</mask>
<g mask="url(#mask0)">
<path d="M97 9.00002L97 185" stroke="#C4C4C4" stroke-width="0.5" stroke-dasharray="1 1"/>
<path d="M68 9.00002L68 185" stroke="#C4C4C4" stroke-width="0.5" stroke-dasharray="1 1"/>
<path d="M39 9.00002L39 185" stroke="#C4C4C4" stroke-width="0.5" stroke-dasharray="1 1"/>
<path d="M10 9.00002L10 185" stroke="#C4C4C4" stroke-width="0.5" stroke-dasharray="1 1"/>
<path d="M184 9.00002L184 185" stroke="#C4C4C4" stroke-width="0.5" stroke-dasharray="1 1"/>
<path d="M155 9.00002L155 185" stroke="#C4C4C4" stroke-width="0.5" stroke-dasharray="1 1"/>
<path d="M126 9.00002L126 185" stroke="#C4C4C4" stroke-width="0.5" stroke-dasharray="1 1"/>
<path d="M9.00002 97L185 97" stroke="#C4C4C4" stroke-width="0.5" stroke-dasharray="1 1"/>
<path d="M9.00002 126L185 126" stroke="#C4C4C4" stroke-width="0.5" stroke-dasharray="1 1"/>
<path d="M9.00002 155L185 155" stroke="#C4C4C4" stroke-width="0.5" stroke-dasharray="1 1"/>
<path d="M9.00002 184L185 184" stroke="#C4C4C4" stroke-width="0.5" stroke-dasharray="1 1"/>
<path d="M9.00002 9.99999L185 9.99995" stroke="#C4C4C4" stroke-width="0.5" stroke-dasharray="1 1"/>
<path d="M9.00002 39L185 39" stroke="#C4C4C4" stroke-width="0.5" stroke-dasharray="1 1"/>
<path d="M9.00002 68L185 68" stroke="#C4C4C4" stroke-width="0.5" stroke-dasharray="1 1"/>
</g>
<circle cx="97" cy="97" r="87.5" stroke="#111111"/>
<circle cx="97" cy="97" r="43.75" stroke="#C4C4C4" stroke-width="0.5"/>
<circle cx="97" cy="97" r="16.75" stroke="#C4C4C4" stroke-width="0.5"/>
<path d="M97 12L97 34" stroke="#111111" stroke-width="0.5"/>
<path d="M97 43L97 63" stroke="#111111" stroke-width="0.5"/>
<path d="M97 73L97 93" stroke="#111111" stroke-width="0.5"/>
<path d="M97 102L97 122" stroke="#111111" stroke-width="0.5"/>
<path d="M97 130L97 150" stroke="#111111" stroke-width="0.5"/>
<path d="M97 160L97 182" stroke="#111111" stroke-width="0.5"/>
<path d="M182 97L160 97" stroke="#111111" stroke-width="0.5"/>
<path d="M151 97L131 97" stroke="#111111" stroke-width="0.5"/>
<path d="M121 97L101 97" stroke="#111111" stroke-width="0.5"/>
<path d="M92 97L72 97" stroke="#111111" stroke-width="0.5"/>
<path d="M64 97L44 97" stroke="#111111" stroke-width="0.5"/>
<path d="M34 97L12 97" stroke="#111111" stroke-width="0.5"/>
<path d="M95.9309 4.283C95.7554 4.4195 95.5019 4.504 95.2354 4.504C94.6764 4.504 94.2539 4.192 94.2539 3.646C94.2539 3.1195 94.6959 2.788 95.2354 2.788C95.7814 2.788 96.2169 3.1195 96.2169 3.646C96.2169 3.9255 96.1064 4.1335 95.9309 4.283ZM95.9959 6.6165C95.8074 6.792 95.5539 6.8765 95.2354 6.8765C94.5854 6.8765 94.1954 6.4995 94.1954 5.9275C94.1954 5.297 94.7089 4.9785 95.2354 4.9785C95.7489 4.9785 96.2754 5.297 96.2754 5.9275C96.2754 6.2135 96.1844 6.441 95.9959 6.6165ZM96.2364 4.6015C96.5419 4.361 96.7369 3.984 96.7369 3.6395C96.7369 2.8205 96.1194 2.3525 95.2354 2.3525C94.3514 2.3525 93.7339 2.8205 93.7339 3.6395C93.7339 4.14 94.0524 4.6405 94.5919 4.7445C94.5204 4.7705 94.4489 4.803 94.3774 4.8355C94.3059 4.868 94.2539 4.9005 94.1954 4.946C93.8574 5.1995 93.6754 5.5505 93.6754 5.921C93.6754 6.8115 94.3124 7.312 95.2289 7.312C96.1519 7.312 96.7954 6.8115 96.7954 5.921C96.7954 5.349 96.4574 4.9265 95.8854 4.7705C96.0154 4.738 96.1324 4.6795 96.2364 4.6015ZM99.171 6.7725C99.0605 6.844 98.9305 6.8765 98.768 6.8765C97.8385 6.8765 97.7735 5.5245 97.7735 4.8095C97.7735 4.0815 97.8515 2.7165 98.768 2.7165C99.704 2.7165 99.8145 4.0815 99.8145 4.8095C99.8145 5.4335 99.743 6.428 99.171 6.7725ZM100.049 6.5255C100.283 6.0315 100.354 5.4335 100.354 4.8095C100.354 3.5875 100.068 2.268 98.768 2.268C97.4875 2.268 97.234 3.5875 97.234 4.8095C97.234 6.025 97.4875 7.3315 98.768 7.3315C99.418 7.3315 99.821 7 100.049 6.5255Z" fill="#444444"/>
<path d="M94.0199 126.719L95.6969 123.97L95.6839 124.568V126.719H94.0199ZM96.1779 127.168H96.8864V126.719H96.1779V123.515C96.1779 123.417 96.1519 123.391 96.0544 123.391H95.6124C95.5539 123.391 95.5084 123.417 95.4824 123.476L93.5844 126.589C93.5454 126.648 93.5259 126.713 93.5259 126.771V127.045C93.5259 127.129 93.5649 127.168 93.6494 127.168H95.6709V128.208H96.1779V127.168ZM99.171 127.772C99.0605 127.844 98.9305 127.876 98.768 127.876C97.8385 127.876 97.7735 126.524 97.7735 125.809C97.7735 125.081 97.8515 123.716 98.768 123.716C99.704 123.716 99.8145 125.081 99.8145 125.809C99.8145 126.433 99.743 127.428 99.171 127.772ZM100.049 127.525C100.283 127.031 100.354 126.433 100.354 125.809C100.354 124.587 100.068 123.268 98.768 123.268C97.4875 123.268 97.234 124.587 97.234 125.809C97.234 127.025 97.4875 128.332 98.768 128.332C99.418 128.332 99.821 128 100.049 127.525Z" fill="#444444"/>
<path d="M95.6644 69.792C95.5084 69.8505 95.3654 69.883 95.2354 69.883C94.6439 69.883 94.2474 69.3435 94.2474 68.6415C94.2474 68.05 94.6634 67.5235 95.2484 67.5235C95.9049 67.5235 96.2559 68.0695 96.2559 68.7C96.2559 69.2005 96.0544 69.61 95.6644 69.792ZM96.6979 66.594C96.6134 65.8335 96.1129 65.359 95.3004 65.359C94.3644 65.359 93.6754 66.2495 93.6754 67.985C93.6754 68.583 93.7339 68.96 93.8574 69.3175C94.0654 69.896 94.5594 70.3185 95.2939 70.3185C96.2104 70.3185 96.7694 69.6165 96.7694 68.713C96.7694 67.751 96.2364 67.1205 95.3784 67.1205C94.7999 67.1205 94.3254 67.374 94.1239 67.946C94.1239 67.0815 94.3904 65.7945 95.3069 65.7945C95.7749 65.7945 96.1649 66.1 96.1844 66.594H96.6979ZM99.171 69.7725C99.0605 69.844 98.9305 69.8765 98.768 69.8765C97.8385 69.8765 97.7735 68.5245 97.7735 67.8095C97.7735 67.0815 97.8515 65.7165 98.768 65.7165C99.704 65.7165 99.8145 67.0815 99.8145 67.8095C99.8145 68.4335 99.743 69.428 99.171 69.7725ZM100.049 69.5255C100.283 69.0315 100.354 68.4335 100.354 67.8095C100.354 66.5875 100.068 65.268 98.768 65.268C97.4875 65.268 97.234 66.5875 97.234 67.8095C97.234 69.025 97.4875 70.3315 98.768 70.3315C99.418 70.3315 99.821 70 100.049 69.5255Z" fill="#444444"/>
<path d="M96.6524 190.759H94.2994C95.0014 190.109 96.5484 188.673 96.5484 187.607C96.5484 186.781 95.9439 186.352 95.1444 186.352C94.3514 186.352 93.7469 186.892 93.7469 187.737H94.2799C94.2799 187.165 94.6309 186.801 95.1314 186.801C95.6514 186.801 96.0219 187.074 96.0154 187.646C96.0154 188.458 94.3124 190.142 93.7079 190.72V191.111C93.7079 191.189 93.7209 191.208 93.7989 191.208H96.6524V190.759ZM99.171 190.772C99.0605 190.844 98.9305 190.876 98.768 190.876C97.8385 190.876 97.7735 189.524 97.7735 188.809C97.7735 188.081 97.8515 186.716 98.768 186.716C99.704 186.716 99.8145 188.081 99.8145 188.809C99.8145 189.433 99.743 190.428 99.171 190.772ZM100.049 190.525C100.283 190.031 100.354 189.433 100.354 188.809C100.354 187.587 100.068 186.268 98.768 186.268C97.4875 186.268 97.234 187.587 97.234 188.809C97.234 190.025 97.4875 191.332 98.768 191.332C99.418 191.332 99.821 191 100.049 190.525Z" fill="#444444"/>
<path d="M96.5939 37.0155C96.6199 36.9635 96.6459 36.905 96.6459 36.8335V36.5865C96.6459 36.502 96.6069 36.463 96.5224 36.463H93.7144V36.9115H96.0999L94.3189 41.208H94.8974L96.5939 37.0155ZM99.171 40.7725C99.0605 40.844 98.9305 40.8765 98.768 40.8765C97.8385 40.8765 97.7735 39.5245 97.7735 38.8095C97.7735 38.0815 97.8515 36.7165 98.768 36.7165C99.704 36.7165 99.8145 38.0815 99.8145 38.8095C99.8145 39.4335 99.743 40.428 99.171 40.7725ZM100.049 40.5255C100.283 40.0315 100.354 39.4335 100.354 38.8095C100.354 37.5875 100.068 36.268 98.768 36.268C97.4875 36.268 97.234 37.5875 97.234 38.8095C97.234 40.025 97.4875 41.3315 98.768 41.3315C99.418 41.3315 99.821 41 100.049 40.5255Z" fill="#444444"/>
<path d="M93.5974 155.921C93.6169 156.792 94.1954 157.319 95.1249 157.319C95.9374 157.319 96.7044 156.915 96.7044 155.953C96.7044 155.323 96.2754 154.835 95.6384 154.751C96.2169 154.647 96.6004 154.172 96.6004 153.626C96.6004 152.742 95.9244 152.352 95.1509 152.352C94.2734 152.352 93.6819 152.853 93.6624 153.659H94.1824C94.2409 153.087 94.5529 152.801 95.1314 152.801C95.6774 152.801 96.0804 153.1 96.0804 153.652C96.0804 154.25 95.5994 154.478 95.0664 154.497H94.8519C94.7544 154.497 94.7479 154.523 94.7479 154.627V154.868C94.7479 154.965 94.7544 154.972 94.8519 154.972H95.1119C95.6579 154.991 96.1844 155.251 96.1844 155.895C96.1844 156.519 95.7944 156.87 95.1444 156.87C94.5269 156.87 94.1824 156.551 94.1109 155.921H93.5974ZM99.171 156.772C99.0605 156.844 98.9305 156.876 98.768 156.876C97.8385 156.876 97.7735 155.524 97.7735 154.809C97.7735 154.081 97.8515 152.716 98.768 152.716C99.704 152.716 99.8145 154.081 99.8145 154.809C99.8145 155.433 99.743 156.428 99.171 156.772ZM100.049 156.525C100.283 156.031 100.354 155.433 100.354 154.809C100.354 153.587 100.068 152.268 98.768 152.268C97.4875 152.268 97.234 153.587 97.234 154.809C97.234 156.025 97.4875 157.332 98.768 157.332C99.418 157.332 99.821 157 100.049 156.525Z" fill="#444444"/>
<path d="M93.7859 99.051C93.8379 99.87 94.4619 100.319 95.2809 100.319C96.1909 100.319 96.7824 99.649 96.7824 98.6935C96.7824 97.6015 96.1714 97.075 95.4174 97.075C94.9494 97.075 94.5659 97.2245 94.3644 97.504L94.4554 95.905H96.5354V95.463H94.0589C93.9809 95.463 93.9614 95.489 93.9549 95.5865L93.8834 98.1345C93.8834 98.219 93.8899 98.232 93.9679 98.232H94.2799C94.3774 98.232 94.3839 98.193 94.4099 98.1215C94.5204 97.7315 94.8649 97.504 95.3069 97.504C95.8594 97.504 96.2624 97.894 96.2624 98.7C96.2624 99.428 95.8464 99.883 95.3004 99.883C94.7739 99.883 94.3839 99.5775 94.2994 99.051H93.7859ZM99.171 99.7725C99.0605 99.844 98.9305 99.8765 98.768 99.8765C97.8385 99.8765 97.7735 98.5245 97.7735 97.8095C97.7735 97.0815 97.8515 95.7165 98.768 95.7165C99.704 95.7165 99.8145 97.0815 99.8145 97.8095C99.8145 98.4335 99.743 99.428 99.171 99.7725ZM100.049 99.5255C100.283 99.0315 100.354 98.4335 100.354 97.8095C100.354 96.5875 100.068 95.268 98.768 95.268C97.4875 95.268 97.234 96.5875 97.234 97.8095C97.234 99.025 97.4875 100.332 98.768 100.332C99.418 100.332 99.821 100 100.049 99.5255Z" fill="#444444"/>
<path d="M65.0199 98.7195L66.6969 95.97L66.6839 96.568V98.7195H65.0199ZM67.1779 99.168H67.8864V98.7195H67.1779V95.515C67.1779 95.4175 67.1519 95.3915 67.0544 95.3915H66.6124C66.5539 95.3915 66.5084 95.4175 66.4824 95.476L64.5844 98.5895C64.5454 98.648 64.5259 98.713 64.5259 98.7715V99.0445C64.5259 99.129 64.5649 99.168 64.6494 99.168H66.6709V100.208H67.1779V99.168ZM70.171 99.7725C70.0605 99.844 69.9305 99.8765 69.768 99.8765C68.8385 99.8765 68.7735 98.5245 68.7735 97.8095C68.7735 97.0815 68.8515 95.7165 69.768 95.7165C70.704 95.7165 70.8145 97.0815 70.8145 97.8095C70.8145 98.4335 70.743 99.428 70.171 99.7725ZM71.0485 99.5255C71.2825 99.0315 71.354 98.4335 71.354 97.8095C71.354 96.5875 71.068 95.268 69.768 95.268C68.4875 95.268 68.234 96.5875 68.234 97.8095C68.234 99.025 68.4875 100.332 69.768 100.332C70.418 100.332 70.821 100 71.0485 99.5255Z" fill="#444444"/>
<path d="M35.5974 97.921C35.6169 98.792 36.1954 99.3185 37.1249 99.3185C37.9374 99.3185 38.7044 98.9155 38.7044 97.9535C38.7044 97.323 38.2754 96.8355 37.6384 96.751C38.2169 96.647 38.6004 96.1725 38.6004 95.6265C38.6004 94.7425 37.9244 94.3525 37.1509 94.3525C36.2734 94.3525 35.6819 94.853 35.6624 95.659H36.1824C36.2409 95.087 36.5529 94.801 37.1314 94.801C37.6774 94.801 38.0804 95.1 38.0804 95.6525C38.0804 96.2505 37.5994 96.478 37.0664 96.4975H36.8519C36.7544 96.4975 36.7479 96.5235 36.7479 96.6275V96.868C36.7479 96.9655 36.7544 96.972 36.8519 96.972H37.1119C37.6579 96.9915 38.1844 97.2515 38.1844 97.895C38.1844 98.519 37.7944 98.87 37.1444 98.87C36.5269 98.87 36.1824 98.5515 36.1109 97.921H35.5974ZM41.171 98.7725C41.0605 98.844 40.9305 98.8765 40.768 98.8765C39.8385 98.8765 39.7735 97.5245 39.7735 96.8095C39.7735 96.0815 39.8515 94.7165 40.768 94.7165C41.704 94.7165 41.8145 96.0815 41.8145 96.8095C41.8145 97.4335 41.743 98.428 41.171 98.7725ZM42.0485 98.5255C42.2825 98.0315 42.354 97.4335 42.354 96.8095C42.354 95.5875 42.068 94.268 40.768 94.268C39.4875 94.268 39.234 95.5875 39.234 96.8095C39.234 98.025 39.4875 99.3315 40.768 99.3315C41.418 99.3315 41.821 99 42.0485 98.5255Z" fill="#444444"/>
<path d="M3.6524 98.7595H1.2994C2.0014 98.1095 3.5484 96.673 3.5484 95.607C3.5484 94.7815 2.9439 94.3525 2.1444 94.3525C1.3514 94.3525 0.746902 94.892 0.746902 95.737H1.2799C1.2799 95.165 1.6309 94.801 2.1314 94.801C2.6514 94.801 3.0219 95.074 3.0154 95.646C3.0154 96.4585 1.3124 98.142 0.707902 98.7205V99.1105C0.707902 99.1885 0.720902 99.208 0.798902 99.208H3.6524V98.7595ZM6.171 98.7725C6.0605 98.844 5.9305 98.8765 5.768 98.8765C4.8385 98.8765 4.7735 97.5245 4.7735 96.8095C4.7735 96.0815 4.8515 94.7165 5.768 94.7165C6.704 94.7165 6.8145 96.0815 6.8145 96.8095C6.8145 97.4335 6.743 98.428 6.171 98.7725ZM7.0485 98.5255C7.2825 98.0315 7.354 97.4335 7.354 96.8095C7.354 95.5875 7.068 94.268 5.768 94.268C4.4875 94.268 4.234 95.5875 4.234 96.8095C4.234 98.025 4.4875 99.3315 5.768 99.3315C6.418 99.3315 6.821 99 7.0485 98.5255Z" fill="#444444"/>
<path d="M125.664 98.792C125.508 98.8505 125.365 98.883 125.235 98.883C124.644 98.883 124.247 98.3435 124.247 97.6415C124.247 97.05 124.663 96.5235 125.248 96.5235C125.905 96.5235 126.256 97.0695 126.256 97.7C126.256 98.2005 126.054 98.61 125.664 98.792ZM126.698 95.594C126.613 94.8335 126.113 94.359 125.3 94.359C124.364 94.359 123.675 95.2495 123.675 96.985C123.675 97.583 123.734 97.96 123.857 98.3175C124.065 98.896 124.559 99.3185 125.294 99.3185C126.21 99.3185 126.769 98.6165 126.769 97.713C126.769 96.751 126.236 96.1205 125.378 96.1205C124.8 96.1205 124.325 96.374 124.124 96.946C124.124 96.0815 124.39 94.7945 125.307 94.7945C125.775 94.7945 126.165 95.1 126.184 95.594H126.698ZM129.171 98.7725C129.061 98.844 128.931 98.8765 128.768 98.8765C127.839 98.8765 127.773 97.5245 127.773 96.8095C127.773 96.0815 127.851 94.7165 128.768 94.7165C129.704 94.7165 129.815 96.0815 129.815 96.8095C129.815 97.4335 129.743 98.428 129.171 98.7725ZM130.049 98.5255C130.283 98.0315 130.354 97.4335 130.354 96.8095C130.354 95.5875 130.068 94.268 128.768 94.268C127.487 94.268 127.234 95.5875 127.234 96.8095C127.234 98.025 127.487 99.3315 128.768 99.3315C129.418 99.3315 129.821 99 130.049 98.5255Z" fill="#444444"/>
<path d="M154.594 95.0155C154.62 94.9635 154.646 94.905 154.646 94.8335V94.5865C154.646 94.502 154.607 94.463 154.522 94.463H151.714V94.9115H154.1L152.319 99.208H152.897L154.594 95.0155ZM157.171 98.7725C157.061 98.844 156.931 98.8765 156.768 98.8765C155.839 98.8765 155.773 97.5245 155.773 96.8095C155.773 96.0815 155.851 94.7165 156.768 94.7165C157.704 94.7165 157.815 96.0815 157.815 96.8095C157.815 97.4335 157.743 98.428 157.171 98.7725ZM158.049 98.5255C158.283 98.0315 158.354 97.4335 158.354 96.8095C158.354 95.5875 158.068 94.268 156.768 94.268C155.487 94.268 155.234 95.5875 155.234 96.8095C155.234 98.025 155.487 99.3315 156.768 99.3315C157.418 99.3315 157.821 99 158.049 98.5255Z" fill="#444444"/>
<path d="M188.931 96.283C188.755 96.4195 188.502 96.504 188.235 96.504C187.676 96.504 187.254 96.192 187.254 95.646C187.254 95.1195 187.696 94.788 188.235 94.788C188.781 94.788 189.217 95.1195 189.217 95.646C189.217 95.9255 189.106 96.1335 188.931 96.283ZM188.996 98.6165C188.807 98.792 188.554 98.8765 188.235 98.8765C187.585 98.8765 187.195 98.4995 187.195 97.9275C187.195 97.297 187.709 96.9785 188.235 96.9785C188.749 96.9785 189.275 97.297 189.275 97.9275C189.275 98.2135 189.184 98.441 188.996 98.6165ZM189.236 96.6015C189.542 96.361 189.737 95.984 189.737 95.6395C189.737 94.8205 189.119 94.3525 188.235 94.3525C187.351 94.3525 186.734 94.8205 186.734 95.6395C186.734 96.14 187.052 96.6405 187.592 96.7445C187.52 96.7705 187.449 96.803 187.377 96.8355C187.306 96.868 187.254 96.9005 187.195 96.946C186.857 97.1995 186.675 97.5505 186.675 97.921C186.675 98.8115 187.312 99.312 188.229 99.312C189.152 99.312 189.795 98.8115 189.795 97.921C189.795 97.349 189.457 96.9265 188.885 96.7705C189.015 96.738 189.132 96.6795 189.236 96.6015ZM192.171 98.7725C192.061 98.844 191.931 98.8765 191.768 98.8765C190.839 98.8765 190.773 97.5245 190.773 96.8095C190.773 96.0815 190.851 94.7165 191.768 94.7165C192.704 94.7165 192.815 96.0815 192.815 96.8095C192.815 97.4335 192.743 98.428 192.171 98.7725ZM193.049 98.5255C193.283 98.0315 193.354 97.4335 193.354 96.8095C193.354 95.5875 193.068 94.268 191.768 94.268C190.487 94.268 190.234 95.5875 190.234 96.8095C190.234 98.025 190.487 99.3315 191.768 99.3315C192.418 99.3315 192.821 99 193.049 98.5255Z" fill="#444444"/>
</svg>
