<svg width="475" height="95" viewBox="0 0 475 95" fill="none" xmlns="http://www.w3.org/2000/svg">
<path d="M3.00675 90.744C3.24675 90.7493 3.45742 90.736 3.63875 90.704C3.82542 90.672 3.98008 90.6133 4.10275 90.528C4.23075 90.4373 4.32675 90.3173 4.39075 90.168C4.45475 90.0187 4.48675 89.832 4.48675 89.608C4.48675 89.3627 4.44408 89.1653 4.35875 89.016C4.27342 88.8667 4.15075 88.752 3.99075 88.672C3.83608 88.592 3.64942 88.5387 3.43075 88.512C3.21742 88.4853 2.98275 88.472 2.72675 88.472H1.82275V90.744H3.00675ZM2.99875 87.928C3.15875 87.928 3.31342 87.912 3.46275 87.88C3.61208 87.8427 3.74542 87.784 3.86275 87.704C3.98008 87.6187 4.07342 87.5093 4.14275 87.376C4.21742 87.2427 4.25475 87.0773 4.25475 86.88C4.25475 86.672 4.21742 86.504 4.14275 86.376C4.06808 86.2427 3.96942 86.1413 3.84675 86.072C3.72942 85.9973 3.59342 85.9467 3.43875 85.92C3.28408 85.8933 3.12675 85.8773 2.96675 85.872H1.82275V87.928H2.99875ZM1.34275 91.296C1.25208 91.296 1.20675 91.2453 1.20675 91.144V85.48C1.20675 85.3787 1.25208 85.328 1.34275 85.328H3.27075C3.48408 85.328 3.68942 85.3627 3.88675 85.432C4.08942 85.496 4.26542 85.592 4.41475 85.72C4.56408 85.848 4.68408 86.0053 4.77475 86.192C4.86542 86.3787 4.91075 86.592 4.91075 86.832C4.91075 86.992 4.88408 87.144 4.83075 87.288C4.77742 87.432 4.70542 87.5627 4.61475 87.68C4.52408 87.7973 4.41475 87.8987 4.28675 87.984C4.15875 88.0693 4.02008 88.1333 3.87075 88.176C4.26008 88.2507 4.56942 88.416 4.79875 88.672C5.02808 88.928 5.14275 89.2667 5.14275 89.688C5.14275 89.8853 5.11075 90.08 5.04675 90.272C4.98275 90.464 4.88142 90.6373 4.74275 90.792C4.60408 90.9413 4.42275 91.0613 4.19875 91.152C3.98008 91.248 3.71342 91.296 3.39875 91.296H1.34275ZM6.84725 91.296H6.23125V87.144H6.84725V91.296ZM6.87925 86.016H6.19925V85.336H6.87925V86.016ZM10.0266 90.784C10.2666 90.656 10.4373 90.464 10.5386 90.208C10.64 89.952 10.6906 89.664 10.6906 89.344C10.6906 89.1093 10.6693 88.888 10.6266 88.68C10.584 88.472 10.512 88.2907 10.4106 88.136C10.3093 87.976 10.176 87.8507 10.0106 87.76C9.85062 87.6693 9.65062 87.624 9.41062 87.624C9.19196 87.624 9.01329 87.6773 8.87462 87.784C8.73596 87.8907 8.62396 88.0267 8.53862 88.192C8.45329 88.352 8.39462 88.5333 8.36262 88.736C8.33062 88.9333 8.31462 89.128 8.31462 89.32C8.31462 89.528 8.33329 89.728 8.37062 89.92C8.41329 90.1067 8.47996 90.2747 8.57062 90.424C8.66662 90.5733 8.78662 90.6933 8.93062 90.784C9.07996 90.8693 9.25862 90.912 9.46662 90.912C9.69062 90.912 9.87729 90.8693 10.0266 90.784ZM11.2426 91.232C11.2426 91.7653 11.0933 92.1707 10.7946 92.448C10.496 92.7253 10.064 92.864 9.49862 92.864C9.02396 92.864 8.63196 92.7733 8.32262 92.592C8.01862 92.4107 7.84262 92.1147 7.79462 91.704H8.48262C8.49329 91.832 8.53062 91.936 8.59462 92.016C8.66396 92.1013 8.74662 92.1707 8.84262 92.224C8.94396 92.2773 9.05329 92.3147 9.17062 92.336C9.29329 92.3573 9.41596 92.368 9.53862 92.368C9.90662 92.368 10.1866 92.2667 10.3786 92.064C10.576 91.8613 10.6746 91.5493 10.6746 91.128L10.6906 90.736C10.5466 90.9707 10.352 91.144 10.1066 91.256C9.86662 91.368 9.62129 91.424 9.37062 91.424C9.05596 91.424 8.78929 91.3653 8.57062 91.248C8.35729 91.1307 8.18129 90.9733 8.04262 90.776C7.90929 90.5787 7.81062 90.352 7.74662 90.096C7.68796 89.8347 7.65862 89.5627 7.65862 89.28C7.65862 88.992 7.69062 88.7173 7.75462 88.456C7.81862 88.1947 7.91996 87.9653 8.05862 87.768C8.20262 87.5653 8.38129 87.4053 8.59462 87.288C8.81329 87.1653 9.07462 87.104 9.37862 87.104C9.54396 87.104 9.69062 87.12 9.81862 87.152C9.94662 87.1787 10.0613 87.2213 10.1626 87.28C10.2693 87.3333 10.3626 87.3973 10.4426 87.472C10.528 87.5467 10.608 87.632 10.6826 87.728L10.6586 87.232H11.2426V91.232ZM12.7268 89.832C12.7801 90.1573 12.9161 90.4107 13.1348 90.592C13.3588 90.768 13.6335 90.856 13.9588 90.856C14.1241 90.856 14.2788 90.824 14.4228 90.76C14.5721 90.6907 14.6975 90.592 14.7988 90.464C14.9055 90.336 14.9881 90.184 15.0468 90.008C15.1108 89.8267 15.1428 89.624 15.1428 89.4C15.1428 88.904 15.0308 88.536 14.8068 88.296C14.5881 88.0507 14.3081 87.928 13.9668 87.928C13.6948 87.928 13.4601 87.9947 13.2628 88.128C13.0655 88.2613 12.9321 88.448 12.8628 88.688C12.8468 88.7307 12.8308 88.7653 12.8148 88.792C12.7988 88.8133 12.7615 88.824 12.7028 88.824H12.3188C12.2708 88.824 12.2415 88.8187 12.2308 88.808C12.2201 88.792 12.2148 88.7573 12.2148 88.704L12.3028 85.568C12.3081 85.5093 12.3188 85.4693 12.3348 85.448C12.3508 85.4267 12.3828 85.416 12.4308 85.416H15.4788V85.96H12.9188L12.8068 87.928C12.9295 87.7573 13.1028 87.6267 13.3268 87.536C13.5561 87.4453 13.8148 87.4 14.1028 87.4C14.3321 87.4 14.5481 87.4427 14.7508 87.528C14.9588 87.608 15.1375 87.7307 15.2868 87.896C15.4415 88.056 15.5615 88.2613 15.6468 88.512C15.7375 88.7627 15.7828 89.056 15.7828 89.392C15.7828 89.6853 15.7375 89.9547 15.6468 90.2C15.5615 90.4453 15.4388 90.656 15.2788 90.832C15.1188 91.008 14.9241 91.144 14.6948 91.24C14.4655 91.3413 14.2121 91.392 13.9348 91.392C13.6841 91.392 13.4495 91.3573 13.2308 91.288C13.0121 91.224 12.8201 91.1253 12.6548 90.992C12.4948 90.8587 12.3641 90.696 12.2628 90.504C12.1668 90.3067 12.1108 90.0827 12.0948 89.832H12.7268ZM19.2029 89.696C19.1976 89.92 19.2296 90.1093 19.2989 90.264C19.3683 90.4133 19.4643 90.5333 19.5869 90.624C19.7096 90.7093 19.8509 90.7707 20.0109 90.808C20.1763 90.8453 20.3496 90.864 20.5309 90.864C20.6909 90.864 20.8483 90.8427 21.0029 90.8C21.1629 90.752 21.3043 90.6827 21.4269 90.592C21.5549 90.496 21.6589 90.3787 21.7389 90.24C21.8189 90.1013 21.8589 89.9387 21.8589 89.752C21.8589 89.5707 21.8243 89.4187 21.7549 89.296C21.6856 89.1733 21.5816 89.0693 21.4429 88.984C21.3096 88.8933 21.1416 88.8107 20.9389 88.736C20.7363 88.656 20.4989 88.568 20.2269 88.472C20.0296 88.4027 19.8376 88.328 19.6509 88.248C19.4643 88.1627 19.2989 88.0587 19.1549 87.936C19.0109 87.808 18.8936 87.656 18.8029 87.48C18.7176 87.2987 18.6749 87.08 18.6749 86.824C18.6749 86.5627 18.7283 86.3307 18.8349 86.128C18.9416 85.92 19.0829 85.7493 19.2589 85.616C19.4349 85.4773 19.6323 85.3733 19.8509 85.304C20.0749 85.2293 20.3043 85.192 20.5389 85.192C20.7843 85.192 20.9949 85.216 21.1709 85.264C21.3469 85.3067 21.5256 85.376 21.7069 85.472C21.9149 85.584 22.0829 85.7413 22.2109 85.944C22.3443 86.1413 22.4136 86.384 22.4189 86.672H21.7469C21.7363 86.5013 21.6963 86.3573 21.6269 86.24C21.5576 86.1227 21.4669 86.0293 21.3549 85.96C21.2483 85.8853 21.1256 85.832 20.9869 85.8C20.8536 85.768 20.7149 85.752 20.5709 85.752C20.4003 85.752 20.2376 85.776 20.0829 85.824C19.9336 85.872 19.8029 85.9413 19.6909 86.032C19.5789 86.1173 19.4909 86.2213 19.4269 86.344C19.3629 86.4667 19.3309 86.6027 19.3309 86.752C19.3309 86.96 19.3709 87.1307 19.4509 87.264C19.5363 87.3973 19.6509 87.512 19.7949 87.608C19.9389 87.704 20.1069 87.7893 20.2989 87.864C20.4963 87.9333 20.7096 88.008 20.9389 88.088C21.1469 88.1627 21.3469 88.24 21.5389 88.32C21.7309 88.4 21.8989 88.4987 22.0429 88.616C22.1923 88.7333 22.3096 88.88 22.3949 89.056C22.4803 89.2267 22.5229 89.4427 22.5229 89.704C22.5229 90.008 22.4696 90.272 22.3629 90.496C22.2563 90.72 22.1069 90.9013 21.9149 91.04C21.6963 91.1947 21.4749 91.296 21.2509 91.344C21.0269 91.3973 20.7603 91.424 20.4509 91.424C19.8376 91.424 19.3629 91.2747 19.0269 90.976C18.6909 90.672 18.5203 90.2453 18.5149 89.696H19.2029ZM26.5596 89.944C26.4903 90.4453 26.309 90.816 26.0156 91.056C25.7276 91.3013 25.357 91.424 24.9036 91.424C24.5996 91.424 24.333 91.3653 24.1036 91.248C23.8796 91.1307 23.693 90.9733 23.5436 90.776C23.3943 90.5733 23.2823 90.3413 23.2076 90.08C23.133 89.8187 23.0956 89.5467 23.0956 89.264C23.0956 88.9867 23.133 88.7173 23.2076 88.456C23.2876 88.1947 23.405 87.9653 23.5596 87.768C23.7143 87.5653 23.9063 87.4053 24.1356 87.288C24.3703 87.1653 24.6396 87.104 24.9436 87.104C25.157 87.104 25.3596 87.1387 25.5516 87.208C25.7436 87.272 25.9116 87.3653 26.0556 87.488C26.1996 87.6107 26.3143 87.7627 26.3996 87.944C26.4903 88.1253 26.541 88.3307 26.5516 88.56H25.8956C25.8796 88.224 25.7836 87.984 25.6076 87.84C25.4316 87.6907 25.1836 87.616 24.8636 87.616C24.693 87.616 24.5383 87.6587 24.3996 87.744C24.2663 87.824 24.1516 87.9387 24.0556 88.088C23.9596 88.232 23.885 88.4053 23.8316 88.608C23.7783 88.8053 23.7516 89.0213 23.7516 89.256C23.7516 89.4907 23.7783 89.7093 23.8316 89.912C23.885 90.1093 23.9596 90.2827 24.0556 90.432C24.1516 90.5813 24.2663 90.6987 24.3996 90.784C24.5383 90.864 24.693 90.904 24.8636 90.904C25.157 90.904 25.3916 90.8293 25.5676 90.68C25.749 90.5253 25.8583 90.28 25.8956 89.944H26.5596ZM29.2899 90.76C29.5299 90.6053 29.7059 90.3947 29.8179 90.128C29.9299 89.856 29.9859 89.568 29.9859 89.264C29.9859 89.072 29.9619 88.88 29.9139 88.688C29.8659 88.4907 29.7885 88.3147 29.6819 88.16C29.5805 88 29.4499 87.8693 29.2899 87.768C29.1299 87.6667 28.9379 87.616 28.7139 87.616C28.4899 87.616 28.2979 87.6667 28.1379 87.768C27.9779 87.8693 27.8472 88 27.7459 88.16C27.6499 88.3147 27.5779 88.4907 27.5299 88.688C27.4819 88.88 27.4579 89.072 27.4579 89.264C27.4579 89.456 27.4819 89.6507 27.5299 89.848C27.5779 90.04 27.6499 90.216 27.7459 90.376C27.8472 90.5307 27.9779 90.6587 28.1379 90.76C28.2979 90.856 28.4899 90.904 28.7139 90.904C28.9379 90.904 29.1299 90.856 29.2899 90.76ZM30.1699 90.76C30.0152 90.9573 29.8179 91.1173 29.5779 91.24C29.3379 91.3627 29.0499 91.424 28.7139 91.424C28.3832 91.424 28.0979 91.3627 27.8579 91.24C27.6232 91.1173 27.4259 90.9573 27.2659 90.76C27.1112 90.5573 26.9965 90.3253 26.9219 90.064C26.8472 89.8027 26.8099 89.536 26.8099 89.264C26.8099 88.992 26.8472 88.7253 26.9219 88.464C26.9965 88.2027 27.1112 87.9733 27.2659 87.776C27.4259 87.5733 27.6232 87.4107 27.8579 87.288C28.0979 87.1653 28.3832 87.104 28.7139 87.104C29.0445 87.104 29.3299 87.1653 29.5699 87.288C29.8152 87.4107 30.0152 87.5733 30.1699 87.776C30.3299 87.9733 30.4472 88.2027 30.5219 88.464C30.6019 88.7253 30.6419 88.992 30.6419 89.264C30.6419 89.536 30.6019 89.8027 30.5219 90.064C30.4472 90.3253 30.3299 90.5573 30.1699 90.76ZM31.9685 91.296H31.3685V87.232H31.9845L31.9685 87.752C32.1232 87.512 32.2885 87.344 32.4645 87.248C32.6405 87.152 32.8325 87.104 33.0405 87.104C33.1045 87.104 33.1712 87.1067 33.2405 87.112C33.3152 87.1173 33.3738 87.128 33.4165 87.144V87.776C33.3578 87.7547 33.3018 87.7413 33.2485 87.736C33.2005 87.7253 33.1392 87.72 33.0645 87.72C32.9312 87.72 32.7978 87.744 32.6645 87.792C32.5365 87.8347 32.4192 87.904 32.3125 88C32.2112 88.096 32.1285 88.2213 32.0645 88.376C32.0005 88.5307 31.9685 88.7173 31.9685 88.936V91.296ZM36.5011 88.896C36.4744 88.512 36.3597 88.2027 36.1571 87.968C35.9597 87.7333 35.6664 87.616 35.2771 87.616C35.0957 87.616 34.9357 87.6507 34.7971 87.72C34.6584 87.7893 34.5411 87.8827 34.4451 88C34.3491 88.1173 34.2717 88.2533 34.2131 88.408C34.1597 88.5627 34.1251 88.7253 34.1091 88.896H36.5011ZM37.1091 89.944C36.9811 90.4613 36.7597 90.8373 36.4451 91.072C36.1357 91.3067 35.7304 91.424 35.2291 91.424C34.9251 91.424 34.6584 91.3653 34.4291 91.248C34.2051 91.1307 34.0184 90.9733 33.8691 90.776C33.7251 90.5733 33.6157 90.3413 33.5411 90.08C33.4717 89.8187 33.4371 89.5467 33.4371 89.264C33.4371 88.9867 33.4744 88.7173 33.5491 88.456C33.6291 88.1947 33.7437 87.9653 33.8931 87.768C34.0477 87.5653 34.2397 87.4053 34.4691 87.288C34.6984 87.1653 34.9651 87.104 35.2691 87.104C35.5997 87.104 35.8824 87.1573 36.1171 87.264C36.3571 87.3707 36.5517 87.52 36.7011 87.712C36.8557 87.904 36.9677 88.1333 37.0371 88.4C37.1064 88.6613 37.1411 88.9467 37.1411 89.256C37.1411 89.3573 37.0957 89.408 37.0051 89.408H34.0931C34.0931 89.616 34.1171 89.8133 34.1651 90C34.2131 90.1813 34.2877 90.3387 34.3891 90.472C34.4957 90.6053 34.6291 90.712 34.7891 90.792C34.9544 90.8667 35.1517 90.904 35.3811 90.904C35.6531 90.904 35.8797 90.8213 36.0611 90.656C36.2424 90.4853 36.3704 90.248 36.4451 89.944H37.1091Z" fill="#444444"/>
<line x1="49" y1="88.75" x2="123" y2="88.75" stroke="#A3A3A3" stroke-width="0.5" stroke-miterlimit="16"/>
<g clip-path="url(#clip0)">
<rect x="132.125" y="79.875" width="21.75" height="0.25" transform="rotate(-90 132.125 79.875)" stroke="#A3A3A3" stroke-width="0.25"/>
<mask id="path-4-inside-1" fill="white">
<path d="M218 80L218 10L218.5 10L218.5 80L218 80Z"/>
</mask>
<path d="M218 80L217 80L217 81L218 81L218 80ZM218 10L218 9L217 9L217 10L218 10ZM218.5 10L219.5 10L219.5 9L218.5 9L218.5 10ZM218.5 80L218.5 81L219.5 81L219.5 80L218.5 80ZM219 80L219 10L217 10L217 80L219 80ZM218 11L218.5 11L218.5 9L218 9L218 11ZM217.5 10L217.5 80L219.5 80L219.5 10L217.5 10ZM218.5 79L218 79L218 81L218.5 81L218.5 79Z" fill="#A3A3A3" mask="url(#path-4-inside-1)"/>
<line x1="261.25" y1="1.09278e-08" x2="261.25" y2="81" stroke="#A3A3A3" stroke-width="0.5" stroke-dasharray="2 2"/>
<rect x="304.125" y="79.875" width="69.75" height="0.25" transform="rotate(-90 304.125 79.875)" stroke="#A3A3A3" stroke-width="0.25"/>
<rect x="390.125" y="79.875" width="21.75" height="0.25" transform="rotate(-90 390.125 79.875)" stroke="#A3A3A3" stroke-width="0.25"/>
</g>
<g clip-path="url(#clip1)">
<path d="M474.987 79.3756C474.987 79.3756 432.061 78.6889 389.187 57.2124C346.312 35.7359 301.789 0.624268 260.5 0.624268C219.21 0.624268 174.687 35.7359 131.812 57.2124C88.9376 78.6889 46.0122 79.3756 46.0122 79.3756" stroke="#858585" stroke-width="1.5" stroke-miterlimit="10"/>
<path d="M119.17 75.256H118.458L120.65 69.968H117.714V69.416H121.17C121.271 69.416 121.322 69.4667 121.322 69.568V69.872C121.322 69.9147 121.314 69.9547 121.298 69.992C121.287 70.0293 121.274 70.064 121.258 70.096L119.17 75.256ZM123.814 75.256H123.222L126.382 69.256H126.974L123.814 75.256ZM124.318 72.024C124.211 72.168 124.078 72.2827 123.918 72.368C123.758 72.4533 123.571 72.496 123.358 72.496C123.15 72.496 122.966 72.4533 122.806 72.368C122.646 72.2827 122.51 72.168 122.398 72.024C122.291 71.88 122.211 71.7147 122.158 71.528C122.104 71.336 122.078 71.136 122.078 70.928C122.078 70.72 122.104 70.5227 122.158 70.336C122.211 70.144 122.291 69.976 122.398 69.832C122.51 69.688 122.646 69.5733 122.806 69.488C122.966 69.3973 123.15 69.352 123.358 69.352C123.571 69.352 123.758 69.3973 123.918 69.488C124.078 69.5733 124.211 69.688 124.318 69.832C124.424 69.976 124.504 70.144 124.558 70.336C124.616 70.5227 124.646 70.72 124.646 70.928C124.646 71.136 124.616 71.336 124.558 71.528C124.504 71.7147 124.424 71.88 124.318 72.024ZM127.79 74.824C127.683 74.968 127.55 75.0827 127.39 75.168C127.23 75.2587 127.046 75.304 126.838 75.304C126.63 75.304 126.446 75.2587 126.286 75.168C126.126 75.0827 125.99 74.968 125.878 74.824C125.771 74.68 125.691 74.5147 125.638 74.328C125.584 74.136 125.558 73.936 125.558 73.728C125.558 73.52 125.584 73.3227 125.638 73.136C125.691 72.944 125.771 72.776 125.878 72.632C125.99 72.488 126.126 72.3733 126.286 72.288C126.446 72.2027 126.63 72.16 126.838 72.16C127.046 72.16 127.23 72.2027 127.39 72.288C127.55 72.3733 127.683 72.488 127.79 72.632C127.902 72.776 127.984 72.944 128.038 73.136C128.096 73.3227 128.126 73.52 128.126 73.728C128.126 73.936 128.096 74.136 128.038 74.328C127.984 74.5147 127.902 74.68 127.79 74.824ZM123.686 71.96C123.83 71.8533 123.931 71.7067 123.99 71.52C124.048 71.3333 124.078 71.1387 124.078 70.936C124.078 70.8027 124.064 70.6667 124.038 70.528C124.016 70.3893 123.976 70.2667 123.918 70.16C123.859 70.0533 123.782 69.9653 123.686 69.896C123.595 69.8267 123.483 69.792 123.35 69.792C123.211 69.792 123.096 69.8267 123.006 69.896C122.92 69.9653 122.851 70.0533 122.798 70.16C122.744 70.2667 122.707 70.3893 122.686 70.528C122.664 70.6667 122.654 70.8027 122.654 70.936C122.654 71.0693 122.664 71.2027 122.686 71.336C122.707 71.4693 122.744 71.5893 122.798 71.696C122.851 71.8027 122.92 71.8907 123.006 71.96C123.096 72.024 123.211 72.056 123.35 72.056C123.483 72.056 123.595 72.024 123.686 71.96ZM127.166 74.76C127.31 74.6533 127.411 74.5067 127.47 74.32C127.528 74.1333 127.558 73.9387 127.558 73.736C127.558 73.6027 127.544 73.4693 127.518 73.336C127.496 73.1973 127.456 73.0747 127.398 72.968C127.339 72.8613 127.262 72.776 127.166 72.712C127.075 72.6427 126.963 72.608 126.83 72.608C126.691 72.608 126.576 72.6427 126.486 72.712C126.4 72.776 126.331 72.8613 126.278 72.968C126.224 73.0747 126.187 73.1973 126.166 73.336C126.144 73.4693 126.134 73.6027 126.134 73.736C126.134 73.8693 126.144 74.0027 126.166 74.136C126.187 74.2693 126.224 74.3893 126.278 74.496C126.331 74.6027 126.4 74.6907 126.486 74.76C126.576 74.824 126.691 74.856 126.83 74.856C126.963 74.856 127.075 74.824 127.166 74.76Z" fill="#444444"/>
<path d="M396.17 75.256H395.458L397.65 69.968H394.714V69.416H398.17C398.271 69.416 398.322 69.4667 398.322 69.568V69.872C398.322 69.9147 398.314 69.9547 398.298 69.992C398.287 70.0293 398.274 70.064 398.258 70.096L396.17 75.256ZM400.814 75.256H400.222L403.382 69.256H403.974L400.814 75.256ZM401.318 72.024C401.211 72.168 401.078 72.2827 400.918 72.368C400.758 72.4533 400.571 72.496 400.358 72.496C400.15 72.496 399.966 72.4533 399.806 72.368C399.646 72.2827 399.51 72.168 399.398 72.024C399.291 71.88 399.211 71.7147 399.158 71.528C399.104 71.336 399.078 71.136 399.078 70.928C399.078 70.72 399.104 70.5227 399.158 70.336C399.211 70.144 399.291 69.976 399.398 69.832C399.51 69.688 399.646 69.5733 399.806 69.488C399.966 69.3973 400.15 69.352 400.358 69.352C400.571 69.352 400.758 69.3973 400.918 69.488C401.078 69.5733 401.211 69.688 401.318 69.832C401.424 69.976 401.504 70.144 401.558 70.336C401.616 70.5227 401.646 70.72 401.646 70.928C401.646 71.136 401.616 71.336 401.558 71.528C401.504 71.7147 401.424 71.88 401.318 72.024ZM404.79 74.824C404.683 74.968 404.55 75.0827 404.39 75.168C404.23 75.2587 404.046 75.304 403.838 75.304C403.63 75.304 403.446 75.2587 403.286 75.168C403.126 75.0827 402.99 74.968 402.878 74.824C402.771 74.68 402.691 74.5147 402.638 74.328C402.584 74.136 402.558 73.936 402.558 73.728C402.558 73.52 402.584 73.3227 402.638 73.136C402.691 72.944 402.771 72.776 402.878 72.632C402.99 72.488 403.126 72.3733 403.286 72.288C403.446 72.2027 403.63 72.16 403.838 72.16C404.046 72.16 404.23 72.2027 404.39 72.288C404.55 72.3733 404.683 72.488 404.79 72.632C404.902 72.776 404.984 72.944 405.038 73.136C405.096 73.3227 405.126 73.52 405.126 73.728C405.126 73.936 405.096 74.136 405.038 74.328C404.984 74.5147 404.902 74.68 404.79 74.824ZM400.686 71.96C400.83 71.8533 400.931 71.7067 400.99 71.52C401.048 71.3333 401.078 71.1387 401.078 70.936C401.078 70.8027 401.064 70.6667 401.038 70.528C401.016 70.3893 400.976 70.2667 400.918 70.16C400.859 70.0533 400.782 69.9653 400.686 69.896C400.595 69.8267 400.483 69.792 400.35 69.792C400.211 69.792 400.096 69.8267 400.006 69.896C399.92 69.9653 399.851 70.0533 399.798 70.16C399.744 70.2667 399.707 70.3893 399.686 70.528C399.664 70.6667 399.654 70.8027 399.654 70.936C399.654 71.0693 399.664 71.2027 399.686 71.336C399.707 71.4693 399.744 71.5893 399.798 71.696C399.851 71.8027 399.92 71.8907 400.006 71.96C400.096 72.024 400.211 72.056 400.35 72.056C400.483 72.056 400.595 72.024 400.686 71.96ZM404.166 74.76C404.31 74.6533 404.411 74.5067 404.47 74.32C404.528 74.1333 404.558 73.9387 404.558 73.736C404.558 73.6027 404.544 73.4693 404.518 73.336C404.496 73.1973 404.456 73.0747 404.398 72.968C404.339 72.8613 404.262 72.776 404.166 72.712C404.075 72.6427 403.963 72.608 403.83 72.608C403.691 72.608 403.576 72.6427 403.486 72.712C403.4 72.776 403.331 72.8613 403.278 72.968C403.224 73.0747 403.187 73.1973 403.166 73.336C403.144 73.4693 403.134 73.6027 403.134 73.736C403.134 73.8693 403.144 74.0027 403.166 74.136C403.187 74.2693 403.224 74.3893 403.278 74.496C403.331 74.6027 403.4 74.6907 403.486 74.76C403.576 74.824 403.691 74.856 403.83 74.856C403.963 74.856 404.075 74.824 404.166 74.76Z" fill="#444444"/>
<path d="M173.156 75.256H169.644C169.596 75.256 169.564 75.248 169.548 75.232C169.537 75.216 169.532 75.184 169.532 75.136V74.656C169.655 74.5387 169.809 74.3867 169.996 74.2C170.188 74.0133 170.388 73.808 170.596 73.584C170.809 73.3547 171.02 73.1173 171.228 72.872C171.441 72.6267 171.631 72.384 171.796 72.144C171.967 71.8987 172.105 71.6667 172.212 71.448C172.319 71.2293 172.372 71.0373 172.372 70.872C172.377 70.52 172.276 70.2587 172.068 70.088C171.865 69.9173 171.604 69.832 171.284 69.832C170.975 69.832 170.721 69.936 170.524 70.144C170.332 70.352 170.236 70.632 170.236 70.984H169.58C169.58 70.7227 169.623 70.488 169.708 70.28C169.799 70.072 169.921 69.8933 170.076 69.744C170.231 69.5947 170.412 69.48 170.62 69.4C170.828 69.32 171.055 69.28 171.3 69.28C171.545 69.28 171.772 69.3147 171.98 69.384C172.193 69.448 172.377 69.544 172.532 69.672C172.687 69.8 172.807 69.96 172.892 70.152C172.983 70.344 173.028 70.568 173.028 70.824C173.028 71.0427 172.98 71.272 172.884 71.512C172.788 71.752 172.66 71.9947 172.5 72.24C172.345 72.48 172.167 72.72 171.964 72.96C171.767 73.1947 171.564 73.4187 171.356 73.632C171.153 73.8453 170.956 74.0453 170.764 74.232C170.572 74.4133 170.404 74.5707 170.26 74.704H173.156V75.256ZM176.312 73.424V70.776L176.328 70.04L174.264 73.424H176.312ZM176.92 75.256H176.296V73.976H173.808C173.707 73.976 173.656 73.9253 173.656 73.824V73.488C173.656 73.4133 173.68 73.3387 173.728 73.264L176.064 69.432C176.096 69.3627 176.149 69.328 176.224 69.328H176.768C176.827 69.328 176.867 69.3387 176.888 69.36C176.909 69.3813 176.92 69.4213 176.92 69.48V73.424H177.792V73.976H176.92V75.256ZM179.988 75.256H179.396L182.556 69.256H183.148L179.988 75.256ZM180.492 72.024C180.385 72.168 180.252 72.2827 180.092 72.368C179.932 72.4533 179.745 72.496 179.532 72.496C179.324 72.496 179.14 72.4533 178.98 72.368C178.82 72.2827 178.684 72.168 178.572 72.024C178.465 71.88 178.385 71.7147 178.332 71.528C178.278 71.336 178.252 71.136 178.252 70.928C178.252 70.72 178.278 70.5227 178.332 70.336C178.385 70.144 178.465 69.976 178.572 69.832C178.684 69.688 178.82 69.5733 178.98 69.488C179.14 69.3973 179.324 69.352 179.532 69.352C179.745 69.352 179.932 69.3973 180.092 69.488C180.252 69.5733 180.385 69.688 180.492 69.832C180.598 69.976 180.678 70.144 180.732 70.336C180.79 70.5227 180.82 70.72 180.82 70.928C180.82 71.136 180.79 71.336 180.732 71.528C180.678 71.7147 180.598 71.88 180.492 72.024ZM183.964 74.824C183.857 74.968 183.724 75.0827 183.564 75.168C183.404 75.2587 183.22 75.304 183.012 75.304C182.804 75.304 182.62 75.2587 182.46 75.168C182.3 75.0827 182.164 74.968 182.052 74.824C181.945 74.68 181.865 74.5147 181.812 74.328C181.758 74.136 181.732 73.936 181.732 73.728C181.732 73.52 181.758 73.3227 181.812 73.136C181.865 72.944 181.945 72.776 182.052 72.632C182.164 72.488 182.3 72.3733 182.46 72.288C182.62 72.2027 182.804 72.16 183.012 72.16C183.22 72.16 183.404 72.2027 183.564 72.288C183.724 72.3733 183.857 72.488 183.964 72.632C184.076 72.776 184.158 72.944 184.212 73.136C184.27 73.3227 184.3 73.52 184.3 73.728C184.3 73.936 184.27 74.136 184.212 74.328C184.158 74.5147 184.076 74.68 183.964 74.824ZM179.86 71.96C180.004 71.8533 180.105 71.7067 180.164 71.52C180.222 71.3333 180.252 71.1387 180.252 70.936C180.252 70.8027 180.238 70.6667 180.212 70.528C180.19 70.3893 180.15 70.2667 180.092 70.16C180.033 70.0533 179.956 69.9653 179.86 69.896C179.769 69.8267 179.657 69.792 179.524 69.792C179.385 69.792 179.27 69.8267 179.18 69.896C179.094 69.9653 179.025 70.0533 178.972 70.16C178.918 70.2667 178.881 70.3893 178.86 70.528C178.838 70.6667 178.828 70.8027 178.828 70.936C178.828 71.0693 178.838 71.2027 178.86 71.336C178.881 71.4693 178.918 71.5893 178.972 71.696C179.025 71.8027 179.094 71.8907 179.18 71.96C179.27 72.024 179.385 72.056 179.524 72.056C179.657 72.056 179.769 72.024 179.86 71.96ZM183.34 74.76C183.484 74.6533 183.585 74.5067 183.644 74.32C183.702 74.1333 183.732 73.9387 183.732 73.736C183.732 73.6027 183.718 73.4693 183.692 73.336C183.67 73.1973 183.63 73.0747 183.572 72.968C183.513 72.8613 183.436 72.776 183.34 72.712C183.249 72.6427 183.137 72.608 183.004 72.608C182.865 72.608 182.75 72.6427 182.66 72.712C182.574 72.776 182.505 72.8613 182.452 72.968C182.398 73.0747 182.361 73.1973 182.34 73.336C182.318 73.4693 182.308 73.6027 182.308 73.736C182.308 73.8693 182.318 74.0027 182.34 74.136C182.361 74.2693 182.398 74.3893 182.452 74.496C182.505 74.6027 182.574 74.6907 182.66 74.76C182.75 74.824 182.865 74.856 183.004 74.856C183.137 74.856 183.249 74.824 183.34 74.76Z" fill="#444444"/>
</g>
<rect x="46" y="80" width="429" height="0.5" fill="#A3A3A3"/>
<path d="M127.944 89.672C128.035 90.4507 128.459 90.84 129.216 90.84C129.616 90.84 129.928 90.736 130.152 90.528C130.382 90.32 130.496 90.024 130.496 89.64C130.496 89.4427 130.459 89.2747 130.384 89.136C130.31 88.992 130.211 88.8747 130.088 88.784C129.966 88.6933 129.824 88.6267 129.664 88.584C129.504 88.536 129.342 88.5093 129.176 88.504H128.856C128.798 88.504 128.76 88.4987 128.744 88.488C128.734 88.472 128.728 88.4347 128.728 88.376V88.08C128.728 88.016 128.734 87.9733 128.744 87.952C128.76 87.9307 128.798 87.92 128.856 87.92H129.12C129.286 87.9147 129.443 87.8933 129.592 87.856C129.742 87.8133 129.872 87.752 129.984 87.672C130.102 87.5867 130.195 87.48 130.264 87.352C130.334 87.224 130.368 87.0667 130.368 86.88C130.368 86.5387 130.256 86.28 130.032 86.104C129.814 85.9227 129.536 85.832 129.2 85.832C128.491 85.832 128.102 86.184 128.032 86.888H127.392C127.398 86.6427 127.446 86.4213 127.536 86.224C127.627 86.0213 127.752 85.8507 127.912 85.712C128.072 85.5733 128.262 85.4667 128.48 85.392C128.704 85.3173 128.952 85.28 129.224 85.28C129.464 85.28 129.691 85.312 129.904 85.376C130.118 85.4347 130.307 85.528 130.472 85.656C130.638 85.784 130.768 85.9467 130.864 86.144C130.96 86.3413 131.008 86.576 131.008 86.848C131.008 87.0187 130.979 87.1813 130.92 87.336C130.867 87.4853 130.787 87.6213 130.68 87.744C130.579 87.8667 130.454 87.9707 130.304 88.056C130.16 88.1413 130 88.2 129.824 88.232C130.022 88.2587 130.2 88.3147 130.36 88.4C130.52 88.4853 130.656 88.592 130.768 88.72C130.886 88.848 130.976 88.9973 131.04 89.168C131.104 89.3387 131.136 89.52 131.136 89.712C131.136 90.0107 131.08 90.2667 130.968 90.48C130.862 90.688 130.718 90.8613 130.536 91C130.36 91.1333 130.155 91.232 129.92 91.296C129.686 91.36 129.443 91.392 129.192 91.392C128.904 91.392 128.646 91.352 128.416 91.272C128.187 91.1973 127.992 91.0853 127.832 90.936C127.672 90.7867 127.547 90.6053 127.456 90.392C127.366 90.1787 127.318 89.9387 127.312 89.672H127.944ZM132.524 89.832C132.577 90.1573 132.713 90.4107 132.932 90.592C133.156 90.768 133.431 90.856 133.756 90.856C133.921 90.856 134.076 90.824 134.22 90.76C134.369 90.6907 134.495 90.592 134.596 90.464C134.703 90.336 134.785 90.184 134.844 90.008C134.908 89.8267 134.94 89.624 134.94 89.4C134.94 88.904 134.828 88.536 134.604 88.296C134.385 88.0507 134.105 87.928 133.764 87.928C133.492 87.928 133.257 87.9947 133.06 88.128C132.863 88.2613 132.729 88.448 132.66 88.688C132.644 88.7307 132.628 88.7653 132.612 88.792C132.596 88.8133 132.559 88.824 132.5 88.824H132.116C132.068 88.824 132.039 88.8187 132.028 88.808C132.017 88.792 132.012 88.7573 132.012 88.704L132.1 85.568C132.105 85.5093 132.116 85.4693 132.132 85.448C132.148 85.4267 132.18 85.416 132.228 85.416H135.276V85.96H132.716L132.604 87.928C132.727 87.7573 132.9 87.6267 133.124 87.536C133.353 87.4453 133.612 87.4 133.9 87.4C134.129 87.4 134.345 87.4427 134.548 87.528C134.756 87.608 134.935 87.7307 135.084 87.896C135.239 88.056 135.359 88.2613 135.444 88.512C135.535 88.7627 135.58 89.056 135.58 89.392C135.58 89.6853 135.535 89.9547 135.444 90.2C135.359 90.4453 135.236 90.656 135.076 90.832C134.916 91.008 134.721 91.144 134.492 91.24C134.263 91.3413 134.009 91.392 133.732 91.392C133.481 91.392 133.247 91.3573 133.028 91.288C132.809 91.224 132.617 91.1253 132.452 90.992C132.292 90.8587 132.161 90.696 132.06 90.504C131.964 90.3067 131.908 90.0827 131.892 89.832H132.524Z" fill="#222222"/>
<path d="M215.88 89.424V86.776L215.896 86.04L213.832 89.424H215.88ZM216.488 91.256H215.864V89.976H213.376C213.275 89.976 213.224 89.9253 213.224 89.824V89.488C213.224 89.4133 213.248 89.3387 213.296 89.264L215.632 85.432C215.664 85.3627 215.718 85.328 215.792 85.328H216.336C216.395 85.328 216.435 85.3387 216.456 85.36C216.478 85.3813 216.488 85.4213 216.488 85.48V89.424H217.36V89.976H216.488V91.256ZM218.524 89.832C218.577 90.1573 218.713 90.4107 218.932 90.592C219.156 90.768 219.431 90.856 219.756 90.856C219.921 90.856 220.076 90.824 220.22 90.76C220.369 90.6907 220.495 90.592 220.596 90.464C220.703 90.336 220.785 90.184 220.844 90.008C220.908 89.8267 220.94 89.624 220.94 89.4C220.94 88.904 220.828 88.536 220.604 88.296C220.385 88.0507 220.105 87.928 219.764 87.928C219.492 87.928 219.257 87.9947 219.06 88.128C218.863 88.2613 218.729 88.448 218.66 88.688C218.644 88.7307 218.628 88.7653 218.612 88.792C218.596 88.8133 218.559 88.824 218.5 88.824H218.116C218.068 88.824 218.039 88.8187 218.028 88.808C218.017 88.792 218.012 88.7573 218.012 88.704L218.1 85.568C218.105 85.5093 218.116 85.4693 218.132 85.448C218.148 85.4267 218.18 85.416 218.228 85.416H221.276V85.96H218.716L218.604 87.928C218.727 87.7573 218.9 87.6267 219.124 87.536C219.353 87.4453 219.612 87.4 219.9 87.4C220.129 87.4 220.345 87.4427 220.548 87.528C220.756 87.608 220.935 87.7307 221.084 87.896C221.239 88.056 221.359 88.2613 221.444 88.512C221.535 88.7627 221.58 89.056 221.58 89.392C221.58 89.6853 221.535 89.9547 221.444 90.2C221.359 90.4453 221.236 90.656 221.076 90.832C220.916 91.008 220.721 91.144 220.492 91.24C220.263 91.3413 220.009 91.392 219.732 91.392C219.481 91.392 219.247 91.3573 219.028 91.288C218.809 91.224 218.617 91.1253 218.452 90.992C218.292 90.8587 218.161 90.696 218.06 90.504C217.964 90.3067 217.908 90.0827 217.892 89.832H218.524Z" fill="#222222"/>
<path d="M301.176 89.832C301.23 90.1573 301.366 90.4107 301.584 90.592C301.808 90.768 302.083 90.856 302.408 90.856C302.574 90.856 302.728 90.824 302.872 90.76C303.022 90.6907 303.147 90.592 303.248 90.464C303.355 90.336 303.438 90.184 303.496 90.008C303.56 89.8267 303.592 89.624 303.592 89.4C303.592 88.904 303.48 88.536 303.256 88.296C303.038 88.0507 302.758 87.928 302.416 87.928C302.144 87.928 301.91 87.9947 301.712 88.128C301.515 88.2613 301.382 88.448 301.312 88.688C301.296 88.7307 301.28 88.7653 301.264 88.792C301.248 88.8133 301.211 88.824 301.152 88.824H300.768C300.72 88.824 300.691 88.8187 300.68 88.808C300.67 88.792 300.664 88.7573 300.664 88.704L300.752 85.568C300.758 85.5093 300.768 85.4693 300.784 85.448C300.8 85.4267 300.832 85.416 300.88 85.416H303.928V85.96H301.368L301.256 87.928C301.379 87.7573 301.552 87.6267 301.776 87.536C302.006 87.4453 302.264 87.4 302.552 87.4C302.782 87.4 302.998 87.4427 303.2 87.528C303.408 87.608 303.587 87.7307 303.736 87.896C303.891 88.056 304.011 88.2613 304.096 88.512C304.187 88.7627 304.232 89.056 304.232 89.392C304.232 89.6853 304.187 89.9547 304.096 90.2C304.011 90.4453 303.888 90.656 303.728 90.832C303.568 91.008 303.374 91.144 303.144 91.24C302.915 91.3413 302.662 91.392 302.384 91.392C302.134 91.392 301.899 91.3573 301.68 91.288C301.462 91.224 301.27 91.1253 301.104 90.992C300.944 90.8587 300.814 90.696 300.712 90.504C300.616 90.3067 300.56 90.0827 300.544 89.832H301.176ZM305.524 89.832C305.577 90.1573 305.713 90.4107 305.932 90.592C306.156 90.768 306.431 90.856 306.756 90.856C306.921 90.856 307.076 90.824 307.22 90.76C307.369 90.6907 307.495 90.592 307.596 90.464C307.703 90.336 307.785 90.184 307.844 90.008C307.908 89.8267 307.94 89.624 307.94 89.4C307.94 88.904 307.828 88.536 307.604 88.296C307.385 88.0507 307.105 87.928 306.764 87.928C306.492 87.928 306.257 87.9947 306.06 88.128C305.863 88.2613 305.729 88.448 305.66 88.688C305.644 88.7307 305.628 88.7653 305.612 88.792C305.596 88.8133 305.559 88.824 305.5 88.824H305.116C305.068 88.824 305.039 88.8187 305.028 88.808C305.017 88.792 305.012 88.7573 305.012 88.704L305.1 85.568C305.105 85.5093 305.116 85.4693 305.132 85.448C305.148 85.4267 305.18 85.416 305.228 85.416H308.276V85.96H305.716L305.604 87.928C305.727 87.7573 305.9 87.6267 306.124 87.536C306.353 87.4453 306.612 87.4 306.9 87.4C307.129 87.4 307.345 87.4427 307.548 87.528C307.756 87.608 307.935 87.7307 308.084 87.896C308.239 88.056 308.359 88.2613 308.444 88.512C308.535 88.7627 308.58 89.056 308.58 89.392C308.58 89.6853 308.535 89.9547 308.444 90.2C308.359 90.4453 308.236 90.656 308.076 90.832C307.916 91.008 307.721 91.144 307.492 91.24C307.263 91.3413 307.009 91.392 306.732 91.392C306.481 91.392 306.247 91.3573 306.028 91.288C305.809 91.224 305.617 91.1253 305.452 90.992C305.292 90.8587 305.161 90.696 305.06 90.504C304.964 90.3067 304.908 90.0827 304.892 89.832H305.524Z" fill="#222222"/>
<path d="M388.856 90.744C389.096 90.632 389.278 90.4587 389.4 90.224C389.523 89.984 389.584 89.7093 389.584 89.4C389.584 89.208 389.558 89.024 389.504 88.848C389.451 88.672 389.371 88.5173 389.264 88.384C389.163 88.2507 389.035 88.1467 388.88 88.072C388.726 87.992 388.547 87.952 388.344 87.952C388.163 87.952 387.998 87.9893 387.848 88.064C387.699 88.1387 387.568 88.24 387.456 88.368C387.35 88.496 387.264 88.6427 387.2 88.808C387.142 88.9733 387.112 89.1467 387.112 89.328C387.112 89.5467 387.142 89.7493 387.2 89.936C387.259 90.1173 387.342 90.2773 387.448 90.416C387.555 90.5547 387.683 90.664 387.832 90.744C387.982 90.8187 388.147 90.856 388.328 90.856C388.488 90.856 388.664 90.8187 388.856 90.744ZM389.496 86.808C389.491 86.6587 389.459 86.5227 389.4 86.4C389.342 86.2773 389.262 86.1733 389.16 86.088C389.064 86.0027 388.952 85.9387 388.824 85.896C388.696 85.848 388.56 85.824 388.416 85.824C388.134 85.824 387.899 85.912 387.712 86.088C387.526 86.264 387.376 86.4853 387.264 86.752C387.152 87.0133 387.072 87.2987 387.024 87.608C386.982 87.9173 386.96 88.2053 386.96 88.472C387.083 88.12 387.28 87.864 387.552 87.704C387.83 87.5387 388.147 87.456 388.504 87.456C388.766 87.456 389.003 87.504 389.216 87.6C389.43 87.6907 389.608 87.8213 389.752 87.992C389.902 88.1627 390.016 88.3707 390.096 88.616C390.176 88.856 390.216 89.1227 390.216 89.416C390.216 89.6933 390.174 89.952 390.088 90.192C390.008 90.432 389.888 90.6427 389.728 90.824C389.574 91 389.384 91.1387 389.16 91.24C388.936 91.3413 388.683 91.392 388.4 91.392C387.947 91.392 387.571 91.2747 387.272 91.04C386.974 90.8107 386.76 90.5173 386.632 90.16C386.558 89.9413 386.502 89.7067 386.464 89.456C386.427 89.2 386.408 88.888 386.408 88.52C386.408 87.9867 386.459 87.52 386.56 87.12C386.662 86.7147 386.8 86.376 386.976 86.104C387.152 85.832 387.363 85.6293 387.608 85.496C387.854 85.3573 388.12 85.288 388.408 85.288C388.91 85.288 389.307 85.424 389.6 85.696C389.899 85.968 390.075 86.3387 390.128 86.808H389.496ZM391.524 89.832C391.577 90.1573 391.713 90.4107 391.932 90.592C392.156 90.768 392.431 90.856 392.756 90.856C392.921 90.856 393.076 90.824 393.22 90.76C393.369 90.6907 393.495 90.592 393.596 90.464C393.703 90.336 393.785 90.184 393.844 90.008C393.908 89.8267 393.94 89.624 393.94 89.4C393.94 88.904 393.828 88.536 393.604 88.296C393.385 88.0507 393.105 87.928 392.764 87.928C392.492 87.928 392.257 87.9947 392.06 88.128C391.863 88.2613 391.729 88.448 391.66 88.688C391.644 88.7307 391.628 88.7653 391.612 88.792C391.596 88.8133 391.559 88.824 391.5 88.824H391.116C391.068 88.824 391.039 88.8187 391.028 88.808C391.017 88.792 391.012 88.7573 391.012 88.704L391.1 85.568C391.105 85.5093 391.116 85.4693 391.132 85.448C391.148 85.4267 391.18 85.416 391.228 85.416H394.276V85.96H391.716L391.604 87.928C391.727 87.7573 391.9 87.6267 392.124 87.536C392.353 87.4453 392.612 87.4 392.9 87.4C393.129 87.4 393.345 87.4427 393.548 87.528C393.756 87.608 393.935 87.7307 394.084 87.896C394.239 88.056 394.359 88.2613 394.444 88.512C394.535 88.7627 394.58 89.056 394.58 89.392C394.58 89.6853 394.535 89.9547 394.444 90.2C394.359 90.4453 394.236 90.656 394.076 90.832C393.916 91.008 393.721 91.144 393.492 91.24C393.263 91.3413 393.009 91.392 392.732 91.392C392.481 91.392 392.247 91.3573 392.028 91.288C391.809 91.224 391.617 91.1253 391.452 90.992C391.292 90.8587 391.161 90.696 391.06 90.504C390.964 90.3067 390.908 90.0827 390.892 89.832H391.524Z" fill="#222222"/>
<line x1="398" y1="88.75" x2="472" y2="88.75" stroke="#A3A3A3" stroke-width="0.5" stroke-miterlimit="16"/>
<path d="M139 88.75H210M225 88.75H296" stroke="#A3A3A3" stroke-width="0.5" stroke-miterlimit="16"/>
<line x1="312" y1="88.75" x2="383" y2="88.75" stroke="#A3A3A3" stroke-width="0.5" stroke-miterlimit="16"/>
<defs>
<clipPath id="clip0">
<rect width="429" height="80" fill="white" transform="translate(46)"/>
</clipPath>
<clipPath id="clip1">
<rect width="429" height="80" fill="white" transform="translate(46)"/>
</clipPath>
</defs>
</svg>
