<svg width="9" height="11" viewBox="0 0 9 11" fill="none" xmlns="http://www.w3.org/2000/svg">
<path d="M3.24954 1.25061C3.24954 0.559917 3.80945 0 4.50015 0C5.19084 0 5.75076 0.559917 5.75076 1.25061V8.75427C5.75076 9.44496 5.19084 10.0049 4.50015 10.0049C3.80945 10.0049 3.24954 9.44496 3.24954 8.75427V1.25061Z" fill="#E8923F"/>
<path d="M0.625514 4.20957C0.0273564 3.86422 -0.177588 3.09936 0.167759 2.5012C0.513105 1.90305 1.27797 1.6981 1.87612 2.04345L8.37449 5.79528C8.97264 6.14063 9.17759 6.90549 8.83224 7.50365C8.48689 8.1018 7.72203 8.30675 7.12388 7.9614L0.625514 4.20957Z" fill="#E8923F"/>
<path d="M1.87612 7.9614C1.27797 8.30675 0.513105 8.1018 0.167759 7.50365C-0.177588 6.90549 0.0273563 6.14063 0.625514 5.79528L7.12388 2.04345C7.72203 1.6981 8.48689 1.90305 8.83224 2.5012C9.17759 3.09936 8.97264 3.86422 8.37449 4.20957L1.87612 7.9614Z" fill="#E8923F"/>
</svg>
