<svg width="467" height="95" viewBox="0 0 467 95" fill="none" xmlns="http://www.w3.org/2000/svg">
<path d="M1.03872 85.28V85.832H3.52672C3.37472 86.6 2.99072 87.144 2.47072 87.592C1.95872 88.016 1.29472 88.312 0.622718 88.504L1.03872 88.96C2.91872 88.328 4.03872 87.208 4.23072 85.448C4.23072 85.32 4.19072 85.28 4.06272 85.28H1.03872ZM6.38272 84.952H5.75072V86.72H4.27072V87.28H5.75072V88.944H6.38272V84.952ZM2.41472 91.44V89.864H5.73472V91.44H2.41472ZM6.36672 89.504C6.36672 89.376 6.32672 89.336 6.19872 89.336H1.95072C1.82272 89.336 1.78272 89.376 1.78272 89.504V91.792C1.78272 91.92 1.82272 91.96 1.95072 91.96H6.19872C6.32672 91.96 6.36672 91.92 6.36672 91.792V89.504ZM9.69528 85.224H9.03928V86.552C9.03928 87.352 8.86328 88.056 8.53528 88.664C8.17528 89.304 7.67128 89.824 7.02328 90.224C7.20728 90.344 7.44728 90.528 7.57528 90.648C7.92728 90.416 8.31928 90.048 8.64728 89.6C8.96728 89.184 9.23928 88.728 9.36728 88.248C9.55928 88.768 9.84728 89.216 10.1753 89.6C10.4873 89.952 10.8313 90.248 11.1593 90.472C11.2153 90.416 11.2873 90.336 11.3753 90.248C11.4633 90.176 11.5513 90.08 11.6393 90.016C10.9913 89.64 10.4953 89.152 10.1513 88.56C9.83928 88.04 9.69528 87.4 9.69528 86.664V85.224ZM12.8633 88.24H13.9113V87.672H12.8633V84.952H12.2313V92.048H12.8633V88.24ZM20.7202 88.264C20.2402 88.112 19.7762 87.848 19.4242 87.472C19.0722 87.096 18.8482 86.624 18.8482 86.04V85.824H20.2242V85.28H16.7602V85.824H18.1922V86.024C18.1922 86.664 17.9522 87.184 17.5922 87.6C17.2322 88.016 16.7282 88.32 16.2162 88.52L16.7042 88.936C17.0882 88.752 17.4402 88.512 17.7842 88.232C18.1202 87.96 18.3682 87.616 18.5202 87.2C18.7122 87.592 19.0322 87.912 19.3602 88.168C19.6882 88.424 20.0402 88.608 20.3202 88.728L20.7202 88.264ZM22.2482 84.952H21.6162V86.52H20.1442V87.064H21.6162V89.048H22.2482V84.952ZM18.2962 91.44V89.936H21.6162V91.44H18.2962ZM22.2482 89.584C22.2482 89.456 22.2082 89.416 22.0802 89.416H17.8322C17.7042 89.416 17.6642 89.456 17.6642 89.584V91.792C17.6642 91.92 17.7042 91.96 17.8322 91.96H22.0802C22.2082 91.96 22.2482 91.92 22.2482 91.792V89.584ZM29.2087 87.592C28.5607 87.464 27.9127 87.216 27.4327 86.864C26.9527 86.512 26.6407 86.064 26.6407 85.488V85.12H25.9367V85.496C25.9367 86.48 25.0727 87.184 23.3447 87.6L23.7847 88.096C24.2967 87.96 24.7927 87.76 25.2407 87.48C25.6887 87.216 26.0647 86.856 26.2967 86.408C26.4807 86.832 26.8567 87.184 27.3127 87.472C27.7687 87.76 28.2967 87.968 28.8087 88.096L29.2087 87.592ZM29.5367 88.872H23.0487V89.416H25.9927V92.056H26.6407V89.416H29.5367V88.872Z" fill="#444444"/>
<line x1="41" y1="88.75" x2="115" y2="88.75" stroke="#A3A3A3" stroke-width="0.5" stroke-miterlimit="16"/>
<g clip-path="url(#clip0)">
<rect x="124.125" y="79.875" width="21.75" height="0.25" transform="rotate(-90 124.125 79.875)" stroke="#A3A3A3" stroke-width="0.25"/>
<mask id="path-5-inside-1" fill="white">
<path d="M210 80L210 10L210.5 10L210.5 80L210 80Z"/>
</mask>
<path d="M210 80L209 80L209 81L210 81L210 80ZM210 10L210 9L209 9L209 10L210 10ZM210.5 10L211.5 10L211.5 9L210.5 9L210.5 10ZM210.5 80L210.5 81L211.5 81L211.5 80L210.5 80ZM211 80L211 10L209 10L209 80L211 80ZM210 11L210.5 11L210.5 9L210 9L210 11ZM209.5 10L209.5 80L211.5 80L211.5 10L209.5 10ZM210.5 79L210 79L210 81L210.5 81L210.5 79Z" fill="#A3A3A3" mask="url(#path-5-inside-1)"/>
<line x1="253.25" y1="1.09278e-08" x2="253.25" y2="81" stroke="#A3A3A3" stroke-width="0.5" stroke-dasharray="2 2"/>
<rect x="296.125" y="79.875" width="69.75" height="0.25" transform="rotate(-90 296.125 79.875)" stroke="#A3A3A3" stroke-width="0.25"/>
<rect x="382.125" y="79.875" width="21.75" height="0.25" transform="rotate(-90 382.125 79.875)" stroke="#A3A3A3" stroke-width="0.25"/>
</g>
<g clip-path="url(#clip1)">
<path d="M466.987 79.3756C466.987 79.3756 424.061 78.6889 381.187 57.2124C338.312 35.7359 293.789 0.624268 252.5 0.624268C211.21 0.624268 166.687 35.7359 123.812 57.2124C80.9376 78.6889 38.0122 79.3756 38.0122 79.3756" stroke="#858585" stroke-width="1.5" stroke-miterlimit="10"/>
<path d="M113.258 70.096C113.29 70.032 113.322 69.96 113.322 69.872V69.568C113.322 69.464 113.274 69.416 113.17 69.416H109.714V69.968H112.65L110.458 75.256H111.17L113.258 70.096ZM118.974 69.256H118.382L115.222 75.256H115.814L118.974 69.256ZM116.318 72.024C116.534 71.736 116.646 71.344 116.646 70.928C116.646 70.104 116.206 69.352 115.358 69.352C114.518 69.352 114.078 70.104 114.078 70.928C114.078 71.76 114.518 72.496 115.358 72.496C115.782 72.496 116.102 72.312 116.318 72.024ZM119.79 74.824C120.014 74.536 120.126 74.144 120.126 73.728C120.126 72.896 119.67 72.16 118.838 72.16C117.998 72.16 117.558 72.896 117.558 73.728C117.558 74.552 117.998 75.304 118.838 75.304C119.254 75.304 119.574 75.112 119.79 74.824ZM115.686 71.96C115.598 72.024 115.486 72.056 115.35 72.056C114.806 72.056 114.654 71.472 114.654 70.936C114.654 70.392 114.806 69.792 115.35 69.792C115.894 69.792 116.078 70.392 116.078 70.936C116.078 71.344 115.974 71.744 115.686 71.96ZM119.166 74.76C119.078 74.824 118.966 74.856 118.83 74.856C118.286 74.856 118.134 74.272 118.134 73.736C118.134 73.192 118.286 72.608 118.83 72.608C119.374 72.608 119.558 73.192 119.558 73.736C119.558 74.144 119.454 74.544 119.166 74.76Z" fill="#444444"/>
<path d="M390.258 70.096C390.29 70.032 390.322 69.96 390.322 69.872V69.568C390.322 69.464 390.274 69.416 390.17 69.416H386.714V69.968H389.65L387.458 75.256H388.17L390.258 70.096ZM395.974 69.256H395.382L392.222 75.256H392.814L395.974 69.256ZM393.318 72.024C393.534 71.736 393.646 71.344 393.646 70.928C393.646 70.104 393.206 69.352 392.358 69.352C391.518 69.352 391.078 70.104 391.078 70.928C391.078 71.76 391.518 72.496 392.358 72.496C392.782 72.496 393.102 72.312 393.318 72.024ZM396.79 74.824C397.014 74.536 397.126 74.144 397.126 73.728C397.126 72.896 396.67 72.16 395.838 72.16C394.998 72.16 394.558 72.896 394.558 73.728C394.558 74.552 394.998 75.304 395.838 75.304C396.254 75.304 396.574 75.112 396.79 74.824ZM392.686 71.96C392.598 72.024 392.486 72.056 392.35 72.056C391.806 72.056 391.654 71.472 391.654 70.936C391.654 70.392 391.806 69.792 392.35 69.792C392.894 69.792 393.078 70.392 393.078 70.936C393.078 71.344 392.974 71.744 392.686 71.96ZM396.166 74.76C396.078 74.824 395.966 74.856 395.83 74.856C395.286 74.856 395.134 74.272 395.134 73.736C395.134 73.192 395.286 72.608 395.83 72.608C396.374 72.608 396.558 73.192 396.558 73.736C396.558 74.144 396.454 74.544 396.166 74.76Z" fill="#444444"/>
<path d="M165.156 74.704H162.26C163.124 73.904 165.028 72.136 165.028 70.824C165.028 69.808 164.284 69.28 163.3 69.28C162.324 69.28 161.58 69.944 161.58 70.984H162.236C162.236 70.28 162.668 69.832 163.284 69.832C163.924 69.832 164.38 70.168 164.372 70.872C164.372 71.872 162.276 73.944 161.532 74.656V75.136C161.532 75.232 161.548 75.256 161.644 75.256H165.156V74.704ZM166.264 73.424L168.328 70.04L168.312 70.776V73.424H166.264ZM168.92 73.976H169.792V73.424H168.92V69.48C168.92 69.36 168.888 69.328 168.768 69.328H168.224C168.152 69.328 168.096 69.36 168.064 69.432L165.728 73.264C165.68 73.336 165.656 73.416 165.656 73.488V73.824C165.656 73.928 165.704 73.976 165.808 73.976H168.296V75.256H168.92V73.976ZM175.148 69.256H174.556L171.396 75.256H171.988L175.148 69.256ZM172.492 72.024C172.708 71.736 172.82 71.344 172.82 70.928C172.82 70.104 172.38 69.352 171.532 69.352C170.692 69.352 170.252 70.104 170.252 70.928C170.252 71.76 170.692 72.496 171.532 72.496C171.956 72.496 172.276 72.312 172.492 72.024ZM175.964 74.824C176.188 74.536 176.3 74.144 176.3 73.728C176.3 72.896 175.844 72.16 175.012 72.16C174.172 72.16 173.732 72.896 173.732 73.728C173.732 74.552 174.172 75.304 175.012 75.304C175.428 75.304 175.748 75.112 175.964 74.824ZM171.86 71.96C171.772 72.024 171.66 72.056 171.524 72.056C170.98 72.056 170.828 71.472 170.828 70.936C170.828 70.392 170.98 69.792 171.524 69.792C172.068 69.792 172.252 70.392 172.252 70.936C172.252 71.344 172.148 71.744 171.86 71.96ZM175.34 74.76C175.252 74.824 175.14 74.856 175.004 74.856C174.46 74.856 174.308 74.272 174.308 73.736C174.308 73.192 174.46 72.608 175.004 72.608C175.548 72.608 175.732 73.192 175.732 73.736C175.732 74.144 175.628 74.544 175.34 74.76Z" fill="#444444"/>
</g>
<rect x="38" y="80" width="429" height="0.5" fill="#A3A3A3"/>
<path d="M119.312 89.672C119.336 90.744 120.048 91.392 121.192 91.392C122.192 91.392 123.136 90.896 123.136 89.712C123.136 88.936 122.608 88.336 121.824 88.232C122.536 88.104 123.008 87.52 123.008 86.848C123.008 85.76 122.176 85.28 121.224 85.28C120.144 85.28 119.416 85.896 119.392 86.888H120.032C120.104 86.184 120.488 85.832 121.2 85.832C121.872 85.832 122.368 86.2 122.368 86.88C122.368 87.616 121.776 87.896 121.12 87.92H120.856C120.736 87.92 120.728 87.952 120.728 88.08V88.376C120.728 88.496 120.736 88.504 120.856 88.504H121.176C121.848 88.528 122.496 88.848 122.496 89.64C122.496 90.408 122.016 90.84 121.216 90.84C120.456 90.84 120.032 90.448 119.944 89.672H119.312ZM123.892 89.832C123.956 90.84 124.724 91.392 125.732 91.392C126.852 91.392 127.58 90.568 127.58 89.392C127.58 88.048 126.828 87.4 125.9 87.4C125.324 87.4 124.852 87.584 124.604 87.928L124.716 85.96H127.276V85.416H124.228C124.132 85.416 124.108 85.448 124.1 85.568L124.012 88.704C124.012 88.808 124.02 88.824 124.116 88.824H124.5C124.62 88.824 124.628 88.776 124.66 88.688C124.796 88.208 125.22 87.928 125.764 87.928C126.444 87.928 126.94 88.408 126.94 89.4C126.94 90.296 126.428 90.856 125.756 90.856C125.108 90.856 124.628 90.48 124.524 89.832H123.892Z" fill="#222222"/>
<path d="M205.832 89.424L207.896 86.04L207.88 86.776V89.424H205.832ZM208.488 89.976H209.36V89.424H208.488V85.48C208.488 85.36 208.456 85.328 208.336 85.328H207.792C207.72 85.328 207.664 85.36 207.632 85.432L205.296 89.264C205.248 89.336 205.224 89.416 205.224 89.488V89.824C205.224 89.928 205.272 89.976 205.376 89.976H207.864V91.256H208.488V89.976ZM209.892 89.832C209.956 90.84 210.724 91.392 211.732 91.392C212.852 91.392 213.58 90.568 213.58 89.392C213.58 88.048 212.828 87.4 211.9 87.4C211.324 87.4 210.852 87.584 210.604 87.928L210.716 85.96H213.276V85.416H210.228C210.132 85.416 210.108 85.448 210.1 85.568L210.012 88.704C210.012 88.808 210.02 88.824 210.116 88.824H210.5C210.62 88.824 210.628 88.776 210.66 88.688C210.796 88.208 211.22 87.928 211.764 87.928C212.444 87.928 212.94 88.408 212.94 89.4C212.94 90.296 212.428 90.856 211.756 90.856C211.108 90.856 210.628 90.48 210.524 89.832H209.892Z" fill="#222222"/>
<path d="M292.544 89.832C292.608 90.84 293.376 91.392 294.384 91.392C295.504 91.392 296.232 90.568 296.232 89.392C296.232 88.048 295.48 87.4 294.552 87.4C293.976 87.4 293.504 87.584 293.256 87.928L293.368 85.96H295.928V85.416H292.88C292.784 85.416 292.76 85.448 292.752 85.568L292.664 88.704C292.664 88.808 292.672 88.824 292.768 88.824H293.152C293.272 88.824 293.28 88.776 293.312 88.688C293.448 88.208 293.872 87.928 294.416 87.928C295.096 87.928 295.592 88.408 295.592 89.4C295.592 90.296 295.08 90.856 294.408 90.856C293.76 90.856 293.28 90.48 293.176 89.832H292.544ZM296.892 89.832C296.956 90.84 297.724 91.392 298.732 91.392C299.852 91.392 300.58 90.568 300.58 89.392C300.58 88.048 299.828 87.4 298.9 87.4C298.324 87.4 297.852 87.584 297.604 87.928L297.716 85.96H300.276V85.416H297.228C297.132 85.416 297.108 85.448 297.1 85.568L297.012 88.704C297.012 88.808 297.02 88.824 297.116 88.824H297.5C297.62 88.824 297.628 88.776 297.66 88.688C297.796 88.208 298.22 87.928 298.764 87.928C299.444 87.928 299.94 88.408 299.94 89.4C299.94 90.296 299.428 90.856 298.756 90.856C298.108 90.856 297.628 90.48 297.524 89.832H296.892Z" fill="#222222"/>
<path d="M380.856 90.744C380.664 90.816 380.488 90.856 380.328 90.856C379.6 90.856 379.112 90.192 379.112 89.328C379.112 88.6 379.624 87.952 380.344 87.952C381.152 87.952 381.584 88.624 381.584 89.4C381.584 90.016 381.336 90.52 380.856 90.744ZM382.128 86.808C382.024 85.872 381.408 85.288 380.408 85.288C379.256 85.288 378.408 86.384 378.408 88.52C378.408 89.256 378.48 89.72 378.632 90.16C378.888 90.872 379.496 91.392 380.4 91.392C381.528 91.392 382.216 90.528 382.216 89.416C382.216 88.232 381.56 87.456 380.504 87.456C379.792 87.456 379.208 87.768 378.96 88.472C378.96 87.408 379.288 85.824 380.416 85.824C380.992 85.824 381.472 86.2 381.496 86.808H382.128ZM382.892 89.832C382.956 90.84 383.724 91.392 384.732 91.392C385.852 91.392 386.58 90.568 386.58 89.392C386.58 88.048 385.828 87.4 384.9 87.4C384.324 87.4 383.852 87.584 383.604 87.928L383.716 85.96H386.276V85.416H383.228C383.132 85.416 383.108 85.448 383.1 85.568L383.012 88.704C383.012 88.808 383.02 88.824 383.116 88.824H383.5C383.62 88.824 383.628 88.776 383.66 88.688C383.796 88.208 384.22 87.928 384.764 87.928C385.444 87.928 385.94 88.408 385.94 89.4C385.94 90.296 385.428 90.856 384.756 90.856C384.108 90.856 383.628 90.48 383.524 89.832H382.892Z" fill="#222222"/>
<line x1="390" y1="88.75" x2="464" y2="88.75" stroke="#A3A3A3" stroke-width="0.5" stroke-miterlimit="16"/>
<path d="M131 88.75H202M217 88.75H288" stroke="#A3A3A3" stroke-width="0.5" stroke-miterlimit="16"/>
<line x1="304" y1="88.75" x2="375" y2="88.75" stroke="#A3A3A3" stroke-width="0.5" stroke-miterlimit="16"/>
<defs>
<clipPath id="clip0">
<rect x="38" width="429" height="80" fill="white"/>
</clipPath>
<clipPath id="clip1">
<rect x="38" width="429" height="80" fill="white"/>
</clipPath>
</defs>
</svg>
